<svg width="30" height="20" viewBox="0 0 30 20" fill="none" xmlns="http://www.w3.org/2000/svg">
<path d="M14.8604 16.5262C16.2948 14.7132 17.5809 13.0999 18.8561 11.4769C20.9443 8.81883 22.9845 6.121 25.1297 3.5103C26.0242 2.42186 27.131 1.50594 28.1572 0.528462C28.5978 0.108636 29.1648 -0.257902 29.6958 0.239904C30.2856 0.792318 29.9143 1.39522 29.4556 1.85633C24.519 6.8167 21.132 12.9573 16.8376 18.4071C15.572 20.013 14.5063 20.2223 12.9406 18.8626C12.4386 18.4416 11.9681 17.9846 11.5328 17.4952C8.47847 13.938 5.39483 10.4042 2.42591 6.7767C1.47267 5.61202 0.816309 4.19922 0.0745143 2.87159C-0.0517393 2.6453 -0.000641571 2.04898 0.102458 2.0136C0.481001 1.88254 1.03471 1.73901 1.30906 1.92118C2.38811 2.63829 3.52222 3.35279 4.387 4.29641C6.47433 6.574 8.41641 8.98418 10.4279 11.3315C11.611 12.7122 12.8176 14.0726 14.0074 15.4476C14.2671 15.7484 14.5019 16.0721 14.8604 16.5262Z" fill="#C93737"/>
</svg>
