<svg width="30" height="20" viewBox="0 0 30 20" fill="none" xmlns="http://www.w3.org/2000/svg">
<path d="M14.8604 3.23455C16.2948 5.04753 17.5809 6.66086 18.8561 8.28381C20.9443 10.9419 22.9845 13.6397 25.1297 16.2504C26.0242 17.3389 27.131 18.2548 28.1572 19.2323C28.5978 19.6521 29.1648 20.0186 29.6958 19.5208C30.2856 18.9684 29.9143 18.3655 29.4556 17.9044C24.519 12.944 21.132 6.80349 16.8376 1.35361C15.572 -0.252296 14.5063 -0.461544 12.9406 0.898193C12.4386 1.31911 11.9681 1.77612 11.5328 2.26558C8.47847 5.82274 5.39483 9.35655 2.42591 12.984C1.47267 14.1487 0.816309 15.5615 0.0745143 16.8892C-0.0517393 17.1154 -0.000641569 17.7118 0.102458 17.7471C0.481001 17.8782 1.03471 18.0217 1.30906 17.8396C2.38811 17.1225 3.52222 16.408 4.387 15.4643C6.47433 13.1867 8.41641 10.7766 10.4279 8.42929C11.611 7.04858 12.8176 5.68819 14.0074 4.31316C14.2671 4.01238 14.5019 3.68867 14.8604 3.23455Z" fill="#C93737"/>
</svg>
