<svg width="22" height="41" viewBox="0 0 22 41" fill="none" xmlns="http://www.w3.org/2000/svg">
<path d="M11.0715 18.4897C11.11 13.5472 11.1409 8.60469 11.1929 3.6622C11.2035 2.67709 11.2779 1.69052 11.3707 0.709378C11.3877 0.547059 11.4514 0.393857 11.5536 0.26978C11.6557 0.145703 11.7915 0.056544 11.9432 0.0139599C12.186 -0.0666153 12.5305 0.213508 12.5812 0.548066C12.6305 0.87253 12.7064 1.19535 12.7254 1.52144C12.8468 3.60396 13.0187 5.68631 13.0549 7.77081C13.129 12.0534 13.1476 16.3372 13.1522 20.6207C13.1568 24.6846 13.108 28.7487 13.0988 32.8126C13.0974 33.4651 13.1764 34.118 13.2324 34.7695C13.2427 34.8127 13.2633 34.8525 13.2922 34.8853C13.3211 34.9181 13.3575 34.9429 13.3981 34.9573C13.495 34.969 13.6583 34.9393 13.693 34.8724C14.3464 33.6236 15.0337 32.3901 15.6167 31.1059C16.9729 28.1185 18.6361 25.316 20.3049 22.5155C20.5791 22.0553 20.8577 21.573 21.4019 21.3873C21.5009 21.3536 21.6706 21.301 21.7037 21.3439C21.8415 21.4975 21.9407 21.6842 21.9922 21.8873C22.0168 22.1037 21.9831 22.3228 21.8949 22.5204C21.5897 23.2202 21.2714 23.9149 20.9293 24.5957C18.4845 29.4618 16.0251 34.3197 13.5868 39.1892C12.6674 41.026 11.7758 41.8988 9.75437 39.6939C9.17187 39.0587 8.58987 38.4161 8.07172 37.7253C5.66629 34.5218 3.27556 31.3065 0.899511 28.0795C0.593207 27.6358 0.320604 27.1679 0.0841981 26.6802C-0.0819844 26.3621 0.0167248 26.0435 0.215866 25.7688C0.435303 25.4665 1.07333 25.2789 1.35383 25.3831C1.97658 25.6147 2.43347 26.0762 2.8472 26.5717C4.43998 28.4798 6.02127 30.398 7.59104 32.3264C8.61693 33.5796 9.62773 34.8459 10.6557 36.0971C10.7065 36.1589 10.8639 36.162 10.9586 36.1369C10.9996 36.1205 11.0361 36.0939 11.065 36.0596C11.094 36.0252 11.1145 35.9841 11.1248 35.9397C11.1662 35.2859 11.2186 34.6307 11.2153 33.9761C11.1891 28.8138 11.1563 23.6515 11.1171 18.4891L11.0715 18.4897Z" fill="white"/>
</svg>
