<svg width="50" height="39" viewBox="0 0 50 39" fill="none" xmlns="http://www.w3.org/2000/svg">
<path d="M47.2314 32.671C47.3889 33.503 46.758 34.4929 45.8541 34.8332C45.3809 35.0113 44.8876 35.125 44.387 35.1713C43.969 35.2083 43.5511 35.2484 43.1333 35.289C42.1552 35.3831 41.1536 35.4797 40.1507 35.5303C39.7477 35.5506 39.3445 35.5634 38.9431 35.5655C36.9889 35.5776 35.0032 35.5485 33.083 35.5205C30.7829 35.4874 28.4048 35.4534 26.0678 35.4876C19.9839 35.5773 13.8523 35.0229 7.92255 34.4869L7.15327 34.4173C5.76314 34.2922 4.32558 34.1623 2.9206 33.9474C2.85846 33.9381 2.79441 33.9301 2.72924 33.9222C2.16544 33.852 1.31372 33.7464 1.04563 32.431C1.03119 32.3596 1.04263 32.2852 1.07798 32.2218C1.11332 32.1583 1.16994 32.1101 1.23728 32.0869C1.38216 32.0363 1.51599 31.982 1.64293 31.9303C1.90233 31.8102 2.17625 31.7266 2.45668 31.6822L3.34346 31.5833C5.3893 31.355 7.50475 31.1191 9.5922 30.9562C15.5073 30.4907 21.4393 30.3507 27.3628 30.5367C31.1789 30.6614 35.0621 30.7251 38.8178 30.7868C40.7202 30.818 42.6228 30.8518 44.5254 30.8882C44.9314 30.8862 45.3354 30.9374 45.7278 31.0404C46.105 31.1333 46.4472 31.3363 46.7138 31.6256C46.9803 31.9146 47.1601 32.2775 47.2314 32.671Z" fill="white"/>
<path d="M47.4282 8.42525C47.6634 7.09198 47.1237 5.49487 46.25 4.93694C45.7926 4.64486 45.3092 4.45596 44.8121 4.37512C44.3969 4.31037 43.9821 4.24055 43.5674 4.1698C42.5965 4.00613 41.6024 3.83794 40.6026 3.74366C40.2009 3.70578 39.7983 3.67991 39.3965 3.67133C37.4404 3.62647 35.4489 3.64713 33.5231 3.66702C31.2164 3.69006 28.8315 3.71364 26.4941 3.62817C20.4091 3.40474 14.2166 4.2144 8.22775 4.99719L7.4508 5.09889C6.04689 5.28151 4.59502 5.47125 3.16788 5.7978C3.10478 5.81185 3.03988 5.82388 2.97387 5.8358C2.40267 5.94107 1.53981 6.09934 1.14889 8.20709C1.12779 8.32143 1.13233 8.44098 1.16183 8.54333C1.19132 8.64569 1.24354 8.72367 1.30882 8.76193C1.44921 8.84496 1.57819 8.9339 1.70052 9.01849C1.94915 9.21457 2.21571 9.35231 2.49245 9.42726L3.37138 9.59762C5.39913 9.99078 7.49589 10.397 9.57139 10.6857C15.4523 11.5102 21.3804 11.8123 27.3303 11.5912C31.164 11.4409 35.0591 11.3894 38.8262 11.3394C40.7345 11.3141 42.6432 11.2847 44.5522 11.2511C44.9585 11.2597 45.3679 11.1829 45.7705 11.0226C46.1569 10.8785 46.5186 10.5571 46.8125 10.0963C47.1063 9.63588 47.3201 9.05579 47.4282 8.42525Z" fill="white"/>
<path d="M1.09274 19.909C1.0709 20.1861 1.13559 20.4651 1.27926 20.7137C1.42293 20.9624 1.63966 21.1705 1.90447 21.3138C2.3547 21.5478 2.84869 21.6996 3.35829 21.7606C4.03413 21.8396 4.74366 21.9153 5.46557 21.959C5.81872 21.9803 6.17457 21.994 6.5308 21.9966C8.65584 22.0139 13.2187 25.8462 15.3066 25.8454C19.215 25.844 20.8513 22.0079 24.8233 22.124C30.2302 22.2811 35.6859 22.0043 40.962 21.7365C42.3453 21.667 43.7273 21.5993 45.1087 21.5337C45.2186 21.5288 45.33 21.5261 45.4432 21.5235C46.2507 21.5047 47.2562 21.4813 48.3239 20.5435C48.3568 20.5144 48.3817 20.4782 48.3955 20.4381C48.4097 20.398 48.413 20.3553 48.4048 20.3133C48.397 20.2714 48.3778 20.2315 48.3494 20.1973C48.3213 20.163 48.2845 20.1353 48.2423 20.1166C46.4066 19.3021 44.7958 19.1083 43.1707 18.9667L41.7523 18.8433C37.26 18.4516 32.6155 18.0466 28.0157 17.9298C20.2838 17.7341 12.693 17.9624 4.28288 18.2579C3.49216 18.2887 2.71593 18.4408 1.98665 18.7078C1.72674 18.8077 1.50485 18.9735 1.34666 19.186C1.18848 19.3986 1.10047 19.6492 1.09274 19.909Z" fill="white"/>
</svg>
