<svg width="50" height="39" viewBox="0 0 50 39" fill="none" xmlns="http://www.w3.org/2000/svg">
<path d="M41.9354 38.1465C41.4585 38.8462 40.3124 39.1001 39.4326 38.7015C38.972 38.4928 38.5428 38.2244 38.1561 37.9032C37.8344 37.6337 37.5106 37.3666 37.1863 37.0999C36.4282 36.4748 35.6517 35.8349 34.9067 35.1615C34.6074 34.8909 34.3132 34.6149 34.0279 34.3325C32.6376 32.9592 31.254 31.5346 29.916 30.157C28.313 28.5072 26.6555 26.8015 24.9788 25.1732C20.6134 20.9346 16.6698 16.207 12.8558 11.635L12.361 11.0418C11.4665 9.97038 10.5419 8.862 9.70036 7.71657C9.66297 7.66608 9.62335 7.61513 9.5829 7.56342C9.23385 7.11513 8.70622 6.43823 9.44682 5.3185C9.48706 5.25784 9.54776 5.21333 9.61765 5.19343C9.68753 5.17353 9.7616 5.17953 9.82568 5.21068C9.96387 5.27737 10.0969 5.33359 10.2232 5.38682C10.4915 5.48535 10.7443 5.61993 10.974 5.78682L11.671 6.34391C13.2791 7.62909 14.9417 8.95817 16.533 10.319C21.0448 14.1725 25.3383 18.268 29.3953 22.588C32.0056 25.3747 34.7064 28.1655 37.3184 30.8648C38.6415 32.2321 39.963 33.6014 41.2826 34.9725C41.5711 35.2581 41.8206 35.5799 42.0252 35.9303C42.2262 36.2626 42.3246 36.6482 42.3086 37.0413C42.2927 37.4341 42.1632 37.8178 41.9354 38.1465Z" fill="white"/>
<path d="M40.1488 4.37817C40.8704 4.82129 41.1785 5.95405 40.8222 6.85178C40.6356 7.32178 40.3879 7.7632 40.0854 8.16474C39.8315 8.49886 39.5801 8.83503 39.3291 9.17157C38.7407 9.95852 38.1384 10.7646 37.5011 11.5407C37.2451 11.8525 36.9833 12.1595 36.7148 12.4579C35.4091 13.9119 34.0518 15.3616 32.7394 16.7635C31.1676 18.4431 29.5426 20.1797 27.9958 21.9319C23.9694 26.4938 19.4345 30.6576 15.0488 34.6844L14.4798 35.2068C13.4521 36.1512 12.3889 37.1275 11.2847 38.0224C11.2361 38.0622 11.1871 38.1042 11.1373 38.1471C10.7061 38.517 10.0551 39.0762 8.90141 38.3896C8.8389 38.3523 8.79156 38.2938 8.76836 38.2249C8.74516 38.1561 8.74764 38.0818 8.77571 38.0163C8.83576 37.8751 8.8856 37.7395 8.93276 37.6109C9.01843 37.3382 9.14085 37.0793 9.29664 36.8419L9.81999 36.1192C11.0273 34.4519 12.2759 32.728 13.5596 31.0739C17.1944 26.3841 21.0813 21.9008 25.2037 17.6432C27.8632 14.9035 30.5226 12.0732 33.0948 9.33592C34.3976 7.94931 35.7026 6.56428 37.0094 5.18101C37.281 4.8793 37.5906 4.61479 37.9309 4.39375C38.2533 4.17714 38.6338 4.06052 39.0271 4.05791C39.4203 4.05511 39.8097 4.16625 40.1488 4.37817Z" fill="white"/>
</svg>
