<svg width="193" height="185" viewBox="0 0 193 185" fill="none" xmlns="http://www.w3.org/2000/svg">
<path d="M15.5781 104.848C15.4303 104.658 15.2605 104.486 15.073 104.336C10.1834 101.552 9.20432 97.7204 12.649 93.2469C14.6454 90.6736 16.9498 88.3548 19.5108 86.3426C21.1167 85.0776 23.3693 84.6357 25.2669 83.8492C25.7262 81.88 25.8623 79.589 26.8114 77.7058C27.7295 75.8833 29.4834 74.4817 30.982 72.7675C28.813 67.1065 29.0904 66.2569 35.0588 61.1845C34.2849 58.806 35.0674 56.7651 36.3969 54.6593C40.0619 48.8563 43.841 43.1508 48.9912 38.5407C62.0835 26.823 77.5448 21.941 94.8639 23.9168C115.895 26.3166 134.047 35.0525 148.499 50.7363C155.176 57.9806 160.116 66.3361 161.721 76.2413C162.409 80.0545 162.655 83.9344 162.455 87.8043C162.069 93.1792 161.058 98.5184 160.137 103.843C159.497 107.547 158.187 110.974 154.339 112.87C155.676 115.729 156.728 118.442 156.383 121.5C156.026 124.664 154.158 126.657 151.473 128.245C152.89 132.503 151.648 136.078 148.521 139.281C150.018 142.276 151.179 145.444 150.714 148.899C150.533 150.718 150.115 152.506 149.473 154.218C147.202 159.636 143.994 160.968 138.583 159.071C137.306 161.376 136.134 163.721 134.754 165.937C131.947 170.449 127.689 172.188 122.643 171.116C117.863 170.048 113.155 168.683 108.543 167.03C99.8592 164.015 91.1935 160.927 82.6399 157.564C68.5505 152.022 54.7191 145.878 41.7036 138.079C34.4343 133.723 27.2664 129.195 20.1484 124.596C18.1278 123.213 16.2642 121.612 14.5903 119.825C13.5523 118.817 12.8352 117.525 12.5299 116.111C12.2247 114.696 12.3446 113.224 12.8748 111.877C13.6903 109.485 14.6845 107.15 15.5781 104.848ZM151.836 108.348C153.06 102.874 154.383 97.753 155.316 92.562C156.36 87.2379 156.366 81.7623 155.333 76.4358C153.447 67.2992 148.633 59.8351 142.369 53.2135C132.875 43.1792 121.238 36.527 108.099 32.6078C89.8017 27.1462 72.401 28.4829 56.4957 40.1154C50.1371 44.7654 45.3215 50.7263 40.6674 57.1973C41.3739 57.9979 42.1478 58.737 42.98 59.4061C45.8627 61.3198 48.6492 63.4784 51.7588 64.9326C63.9707 70.6415 76.3061 76.0856 88.5681 81.6894C98.5105 86.2329 108.409 90.8694 118.334 95.4515C127.421 99.6476 136.502 103.867 146.105 106.798C147.932 107.354 149.793 107.799 151.836 108.348ZM122.671 147.001C120.608 147.428 118.71 147.728 116.861 148.225C113.503 149.122 110.822 148.248 108.802 145.418C107.99 144.369 107.248 143.269 106.581 142.123C104.959 139.06 102.601 137.697 99.0703 138.201C96.74 138.481 94.3935 138.613 92.0464 138.596C90.0964 138.673 88.1577 138.273 86.3984 137.428C84.6394 136.584 83.1141 135.321 81.9557 133.751C80.896 132.381 79.8792 130.971 78.9479 129.512C78.4419 128.617 77.6984 127.881 76.7991 127.383C75.9 126.886 74.8803 126.648 73.8533 126.694C71.8178 126.747 69.7748 126.817 67.7544 127.043C66.2304 127.276 64.6717 127.103 63.235 126.543C61.7987 125.982 60.5351 125.053 59.5715 123.849C58.3081 122.381 57.209 120.779 56.2932 119.072C54.7977 116.173 52.4763 114.906 49.3419 115.031C47.5118 115.104 45.6861 115.357 43.8624 115.565C39.1695 116.102 35.7384 114.205 33.4278 110.167C32.8705 109.193 32.3942 108.172 31.9078 107.159C30.6387 104.518 28.5005 103.451 25.6597 103.796C24.3824 103.952 23.1298 104.307 22.0573 104.532C21.3781 106.742 20.7662 108.581 20.2422 110.446C19.0937 114.533 19.2197 114.872 22.518 117.442C22.7587 117.63 23.0302 117.78 23.2781 117.96C33.7472 125.451 44.7607 132.15 56.2267 138.002C74.6014 147.53 94.0988 154.317 113.619 161.013C116.603 162.037 119.671 162.839 122.735 163.603C124.962 164.158 126.74 163.31 127.943 161.346C128.93 159.73 129.894 158.1 130.962 156.318C126.538 154.732 124.201 151.527 122.671 147.001ZM16.5378 98.6261C18.0993 98.6022 19.2893 98.6469 20.4676 98.549C21.6861 98.4461 22.8877 98.1503 24.1061 98.0314C29.9923 97.4583 33.9224 99.6881 36.4433 104.994C36.7926 105.732 37.1354 106.473 37.4725 107.218C38.578 109.658 40.435 110.724 43.1184 110.412C45.0374 110.14 46.9694 109.973 48.9063 109.912C54.0119 109.877 57.9983 111.847 60.3662 116.598C60.9841 117.77 61.693 118.892 62.4862 119.953C63.0161 120.773 63.7795 121.414 64.6779 121.795C65.5761 122.176 66.5682 122.279 67.5257 122.09C69.5424 121.785 71.5819 121.652 73.6215 121.693C77.6412 121.81 80.922 123.393 83.0257 127.006C83.5888 127.975 84.2714 128.873 84.8796 129.815C85.6558 131.148 86.8002 132.229 88.1758 132.927C89.5513 133.625 91.0993 133.911 92.6334 133.75C94.8727 133.595 97.1183 133.496 99.349 133.254C104.12 132.739 107.618 134.59 110.207 138.587C113.386 143.498 113.452 143.455 119.136 142.372C123.899 141.464 126.564 142.658 129.14 146.886C129.859 148.066 130.518 149.286 131.259 150.582C133.59 149.482 135.438 146.722 137.967 148.181C139.938 149.318 141.31 151.499 142.997 153.267C146.567 151.172 147.319 145.048 144.54 141.222C141.041 140.646 137.769 140.372 134.641 139.55C122.958 136.479 111.936 131.556 100.709 127.201C95.2236 125.073 90.255 121.848 84.6787 119.919C83.6216 119.553 82.844 118.395 81.9235 117.618C81.0234 116.858 80.2104 115.903 79.1804 115.403C68.2462 110.095 57.1997 105.01 46.349 99.5408C41.1744 96.9326 36.3629 93.5976 31.3441 90.6659C30.3921 90.1006 29.3313 89.7434 28.2312 89.6176C23.6862 89.1919 18.9556 92.7299 16.5367 98.6283L16.5378 98.6261ZM71.2074 80.1233C71.1481 80.323 71.0884 80.5226 71.0284 80.7219C75.6163 90.0477 80.1417 99.4047 84.8174 108.686C87.2322 113.479 86.1813 114.25 92.5493 111.816C99.9818 108.977 107.288 105.813 114.643 102.775C115.267 102.517 115.842 102.14 117.062 101.486L71.2074 80.1233ZM76.954 107.525C75.2863 103.773 73.8743 100.73 72.5857 97.6348C71.9924 96.209 71.0306 95.4966 69.6285 94.8407C59.3705 90.0369 48.6854 86.0995 39.1108 79.8864C37.943 79.1288 36.4944 78.7937 35.1647 78.3014C33.8742 77.8228 33.0102 78.4389 32.3632 79.4997C31.484 80.9411 31.5855 82.3145 33.0894 83.5984C34.9006 85.2474 36.8845 86.6962 39.0064 87.9198C50.635 94.1145 62.3387 100.174 74.0192 106.266C74.7179 106.633 75.4736 106.898 76.9529 107.528L76.954 107.525ZM147.043 129.161C143.206 128.371 139.515 127.951 136.049 126.833C126.035 123.648 116.274 119.717 106.848 115.072C106.267 114.717 105.581 114.579 104.908 114.68C102.264 115.632 99.6775 116.747 96.7322 117.941C99.4896 119.286 101.696 120.54 104.03 121.469C112.559 124.867 121.077 128.304 129.71 131.421C133.833 132.901 138.083 133.998 142.408 134.699C146.307 135.337 147.966 133.053 147.042 129.163L147.043 129.161ZM113.658 110.747C114.905 111.355 115.617 111.752 116.366 112.06C122.592 114.619 128.742 117.401 135.087 119.621C139.151 120.938 143.327 121.879 147.563 122.432C150.251 122.844 151.364 121.724 151.659 119.465C152.002 116.834 150.935 114.867 148.745 114.266C141.658 112.326 134.757 109.763 128.121 106.609C126.846 106.003 125.525 105.494 124.685 105.133L113.658 110.747ZM40.2362 63.8234C39.0142 64.6729 37.8408 65.59 36.7216 66.5714C35.2642 68.0006 35.2121 68.681 36.7182 70.1673C38.2386 71.6718 39.9008 73.0262 41.6813 74.2115C48.9547 79.0218 56.9765 82.3813 64.8824 85.9575C65.6287 86.2158 66.3919 86.4233 67.1664 86.5777C66.374 85.0109 65.8605 83.917 65.2774 82.8616C64.3892 81.2541 63.0872 79.769 62.6385 78.0522C62.1741 76.2791 61.1203 75.605 59.7145 74.9173C53.1189 71.6931 46.2849 68.8963 40.2362 63.8234Z" fill="white"/>
<path d="M104.578 46.199C105.221 45.1922 105.579 43.9846 107.05 44.1993C108.488 44.4093 109.131 45.4841 109.112 46.8262C109.111 48.2435 108.963 49.6573 108.669 51.0439C108.387 52.2874 107.62 53.3007 106.116 53.1986C104.788 53.108 103.839 52.007 103.909 50.3801C104.046 48.9741 104.27 47.578 104.578 46.199Z" fill="white"/>
<path d="M137.587 95.9811C137.021 94.8868 136.217 94.0283 136.288 93.2491C136.344 92.628 137.4 91.747 138.13 91.6118C139.62 91.3117 141.152 91.2962 142.647 91.5669C143.422 91.7262 144.5 92.8029 144.533 93.5111C144.457 93.9779 144.264 94.418 143.97 94.7893C143.677 95.1609 143.295 95.4519 142.859 95.6347C141.246 96.0238 139.507 95.89 137.587 95.9811Z" fill="white"/>
<path d="M111.915 72.8619C112.71 71.038 114.487 70.7982 115.629 72.1869C116.669 73.4528 116.747 77.2038 115.761 78.576C114.877 79.8064 113.221 79.8672 112.499 78.5605C111.58 76.8062 111.371 74.7659 111.915 72.8619Z" fill="white"/>
<path d="M74.1548 46.7935C76.1249 47.0724 76.8309 48.7208 75.7977 50.1915C74.8559 51.5327 71.262 52.6096 69.6763 52.0265C68.2545 51.5036 67.7533 49.9241 68.8194 48.8787C70.2646 47.5251 72.1747 46.7783 74.1548 46.7935Z" fill="white"/>
<path d="M143.683 73.4297C142.892 75.0246 139.628 76.1567 138.048 75.3807C137.051 74.8912 136.648 73.3243 137.635 72.5569C138.869 71.5601 140.319 70.8666 141.87 70.5323C143.488 70.2462 144.409 71.967 143.683 73.4297Z" fill="white"/>
<path d="M83.8012 73.8087C82.1595 72.889 81.1591 69.9247 81.8675 68.5555C82.0181 68.2896 82.2212 68.057 82.464 67.8715C82.7067 67.6858 82.9841 67.5511 83.2802 67.4754C83.5763 67.3998 83.885 67.3848 84.1871 67.4312C84.4891 67.4775 84.7787 67.5845 85.0385 67.7455C86.2856 68.5651 86.8422 71.2902 86.0611 72.7828C85.5188 73.8183 84.7946 74.3909 83.8012 73.8087Z" fill="white"/>
</svg>
