<svg width="96" height="76" viewBox="0 0 96 76" fill="none" xmlns="http://www.w3.org/2000/svg">
<path d="M1 1.72754C22.1494 25.511 45.429 50.4366 78.094 54.9047C81.8286 55.4156 85.5494 54.9916 89 53.8116" stroke="white" stroke-width="2" stroke-linecap="round" stroke-linejoin="round"/>
<path d="M89.6237 52.0775C86.7833 54.1083 84.2549 55.9302 81.713 57.7345C77.55 60.689 73.332 63.5661 69.2346 66.6125C67.5263 67.8828 66.0564 69.4951 64.5019 70.9778C63.8343 71.6144 63.2347 72.4501 63.9301 73.3115C64.7017 74.2682 65.6366 73.7551 66.3676 73.0946C74.2314 65.9858 83.7172 61.3653 92.2538 55.2878C94.7693 53.4966 95.1794 51.8811 93.2905 49.3512C92.7074 48.5415 92.0675 47.7768 91.3758 47.0629C86.3393 42.0428 81.3403 36.9798 76.1909 32.0841C74.5376 30.5123 72.4863 29.3726 70.5702 28.1099C70.2435 27.8949 69.3478 27.9174 69.2854 28.0722C69.055 28.6407 68.7899 29.4768 69.0371 29.9149C70.0101 31.6378 70.9741 33.4449 72.3052 34.8603C75.518 38.2767 78.9422 41.4827 82.266 44.7893C84.2211 46.734 86.1438 48.713 88.0898 50.6675C88.5156 51.0943 88.9778 51.4849 89.6237 52.0775Z" fill="white"/>
</svg>
