<svg width="219" height="91" viewBox="0 0 219 91" fill="none" xmlns="http://www.w3.org/2000/svg">
<path d="M62.2995 68.465C62.2995 70.403 61.1975 71.771 58.9935 72.569C59.7915 72.816 60.447 73.0915 60.96 73.3955C62.499 74.2885 63.2685 75.628 63.2685 77.414C63.2685 79.162 62.594 80.5585 61.245 81.6035C59.896 82.6295 58.091 83.1425 55.83 83.1425C55.013 83.1425 53.9775 83.095 52.7235 83C51.4695 82.905 50.548 82.8575 49.959 82.8575C49.446 82.8575 48.9615 82.886 48.5055 82.943L47.166 83.114C47.128 83.114 47.0615 83.1235 46.9665 83.1425C46.8715 83.1425 46.805 83.1425 46.767 83.1425C45.95 83.1235 45.5415 82.7815 45.5415 82.1165C45.5415 81.5085 45.836 81.2045 46.425 81.2045C46.577 81.2045 46.8335 81.233 47.1945 81.29C47.4415 81.328 47.641 81.347 47.793 81.347C48.762 81.347 49.2465 80.644 49.2465 79.238V67.781C49.2465 66.356 48.762 65.6435 47.793 65.6435C47.622 65.6435 47.4225 65.6625 47.1945 65.7005C46.8525 65.7575 46.596 65.786 46.425 65.786C45.836 65.786 45.5415 65.482 45.5415 64.874C45.5415 64.209 45.9785 63.8765 46.8525 63.8765H47.223L48.6195 64.076C49.0185 64.133 49.56 64.1615 50.244 64.1615C50.966 64.1615 51.992 64.1045 53.322 63.9905C54.215 63.9145 55.1745 63.8765 56.2005 63.8765C58.1195 63.8765 59.611 64.285 60.675 65.102C61.758 65.9 62.2995 67.021 62.2995 68.465ZM51.384 69.6905C51.384 70.6975 51.4695 71.3245 51.6405 71.5715C51.8305 71.7995 52.334 71.9135 53.151 71.9135H54.747C58.11 71.9135 59.7915 70.821 59.7915 68.636C59.7915 66.641 58.4045 65.6435 55.6305 65.6435C53.6925 65.6435 52.4955 65.767 52.0395 66.014C51.6025 66.261 51.384 66.8975 51.384 67.9235V69.6905ZM51.384 75.476V78.6395C51.384 79.8745 51.593 80.6345 52.011 80.9195C52.429 81.2045 53.569 81.347 55.431 81.347C58.984 81.347 60.7605 80.017 60.7605 77.357C60.7605 74.906 59.0505 73.6805 55.6305 73.6805H53.265C52.239 73.6805 51.65 73.9085 51.498 74.3645C51.422 74.5925 51.384 74.963 51.384 75.476ZM77.4724 82.2875V81.404C76.4654 82.791 74.9739 83.4845 72.9979 83.4845C70.7559 83.4845 69.1979 82.791 68.3239 81.404C67.9439 80.796 67.7349 80.0835 67.6969 79.2665C67.6779 78.8675 67.6684 78.0315 67.6684 76.7585V74.393C67.6684 71.79 67.3929 70.4885 66.8419 70.4885C66.7279 70.4885 66.5474 70.517 66.3004 70.574C66.0534 70.612 65.8634 70.631 65.7304 70.631C65.0654 70.631 64.7329 70.3175 64.7329 69.6905C64.7329 69.0825 65.1414 68.7785 65.9584 68.7785C66.1484 68.7785 66.4239 68.7975 66.7849 68.8355C67.1649 68.8735 67.4499 68.8925 67.6399 68.8925C67.8109 68.8925 68.1054 68.864 68.5234 68.807C68.8084 68.769 68.9699 68.75 69.0079 68.75C69.5969 68.75 69.8914 69.111 69.8914 69.833V70.4315L69.8629 72.284L69.7774 74.393V76.2455C69.7774 77.8985 69.9104 79.086 70.1764 79.808C70.6134 81.005 71.6584 81.6035 73.3114 81.6035C74.1284 81.6035 74.8504 81.423 75.4774 81.062C76.1044 80.682 76.5414 80.188 76.7884 79.58C77.0924 78.839 77.2444 77.433 77.2444 75.362V73.7945C77.2444 72.6545 77.2444 72.037 77.2444 71.942C77.1494 71.03 76.9024 70.574 76.5034 70.574C76.2944 70.574 76.1234 70.593 75.9904 70.631H75.6484C74.9834 70.631 74.6509 70.3365 74.6509 69.7475C74.6509 69.0825 75.0214 68.75 75.7624 68.75C75.9334 68.75 76.1899 68.769 76.5319 68.807C76.8929 68.845 77.1589 68.864 77.3299 68.864C77.4819 68.864 77.7099 68.8545 78.0139 68.8355C78.3179 68.7975 78.5459 68.7785 78.6979 68.7785C79.2679 68.7785 79.5529 69.0825 79.5529 69.6905C79.5529 69.9565 79.5339 70.1655 79.4959 70.3175C79.4009 71.0395 79.3534 72.1035 79.3534 73.5095V77.8985C79.3534 79.0575 79.3629 79.7035 79.3819 79.8365C79.4769 80.8435 79.7429 81.347 80.1799 81.347C80.3129 81.347 80.5029 81.328 80.7499 81.29C80.9969 81.233 81.1869 81.2045 81.3199 81.2045C81.9659 81.2045 82.2889 81.518 82.2889 82.145C82.2889 82.791 81.8899 83.114 81.0919 83.114C80.9209 83.114 80.6739 83.095 80.3509 83.057C79.8759 83 79.5814 82.9715 79.4674 82.9715C79.4104 82.9715 79.2109 82.9905 78.8689 83.0285C78.6409 83.0855 78.4414 83.114 78.2704 83.114C77.7384 83.114 77.4724 82.8385 77.4724 82.2875ZM87.7934 69.5765V70.346C88.7814 68.959 90.1019 68.2655 91.7549 68.2655C93.0849 68.2655 94.1584 68.6455 94.9754 69.4055C95.8114 70.1465 96.2294 71.106 96.2294 72.284C96.2294 73.12 96.0204 73.804 95.6024 74.336C95.1844 74.849 94.6334 75.1055 93.9494 75.1055C93.5124 75.1055 93.1419 74.9725 92.8379 74.7065C92.5339 74.4405 92.3819 74.1175 92.3819 73.7375C92.3819 73.4335 92.4959 73.1675 92.7239 72.9395C92.9519 72.6925 93.2179 72.569 93.5219 72.569C93.5789 72.569 93.7024 72.5975 93.8924 72.6545C94.0064 72.4265 94.0634 72.2175 94.0634 72.0275C94.0634 71.4765 93.8164 71.011 93.3224 70.631C92.8474 70.251 92.2489 70.061 91.5269 70.061C90.0449 70.061 89.0569 70.726 88.5629 72.056C88.2589 72.873 88.1069 74.108 88.1069 75.761V77.642C88.1069 78.915 88.1164 79.6275 88.1354 79.7795C88.2304 80.8625 88.5249 81.404 89.0189 81.404C89.2659 81.404 89.5224 81.366 89.7884 81.29C89.9974 81.233 90.1779 81.2045 90.3299 81.2045C90.9379 81.2045 91.2419 81.5085 91.2419 82.1165C91.2419 82.7815 90.8524 83.114 90.0734 83.114H89.9594C89.6744 83.114 89.2374 83.076 88.6484 83C88.0784 82.943 87.6509 82.9145 87.3659 82.9145C86.6059 82.9145 86.0074 82.9335 85.5704 82.9715L83.9744 83.114C83.1954 83.114 82.8059 82.7815 82.8059 82.1165C82.8059 81.5275 83.1669 81.233 83.8889 81.233C84.0789 81.233 84.2214 81.2425 84.3164 81.2615L84.7439 81.347C84.9339 81.385 85.0669 81.404 85.1429 81.404C85.6179 81.404 85.8744 80.967 85.9124 80.093L85.9694 78.6395L85.8839 72.17C85.8269 71.049 85.5419 70.4885 85.0289 70.4885C84.8769 70.4885 84.6679 70.517 84.4019 70.574C84.1359 70.631 83.9269 70.6595 83.7749 70.6595C83.1479 70.6595 82.8344 70.3555 82.8344 69.7475C82.8344 69.0825 83.2429 68.75 84.0599 68.75C84.2499 68.75 84.5349 68.7785 84.9149 68.8355C85.2949 68.8735 85.5799 68.8925 85.7699 68.8925C85.9219 68.8925 86.1689 68.8735 86.5109 68.8355C86.6629 68.7975 86.8434 68.7785 87.0524 68.7785C87.5464 68.7785 87.7934 69.0445 87.7934 69.5765ZM103.799 68.2655C104.293 68.2655 104.853 68.3415 105.48 68.4935C105.575 66.6315 106.658 65.7005 108.729 65.7005C109.603 65.7005 110.335 65.9285 110.924 66.3845C111.513 66.8405 111.807 67.42 111.807 68.123C111.807 68.579 111.655 68.9685 111.351 69.2915C111.066 69.6145 110.724 69.776 110.325 69.776C110.021 69.776 109.755 69.6715 109.527 69.4625C109.299 69.2535 109.185 69.0065 109.185 68.7215C109.185 68.4175 109.394 68.104 109.812 67.781C109.508 67.401 109.119 67.211 108.644 67.211C107.637 67.211 107.124 67.838 107.105 69.092C108.549 70.061 109.271 71.3625 109.271 72.9965C109.271 74.3075 108.777 75.4 107.789 76.274C106.801 77.148 105.566 77.585 104.084 77.585C103.039 77.585 101.956 77.338 100.835 76.844C100.531 76.711 100.274 76.6445 100.065 76.6445C99.7991 76.6445 99.5616 76.768 99.3526 77.015C99.1436 77.243 99.0391 77.5185 99.0391 77.8415C99.0391 78.8295 100.037 79.3235 102.032 79.3235H102.203C102.355 79.3235 102.526 79.314 102.716 79.295C102.906 79.295 103.02 79.295 103.058 79.295C104.863 79.295 106.326 79.466 107.447 79.808C108.492 80.131 109.318 80.6345 109.926 81.3185C110.534 82.0025 110.838 82.772 110.838 83.627C110.838 85.014 110.192 86.1065 108.9 86.9045C107.627 87.7215 105.898 88.13 103.713 88.13C101.528 88.13 99.8086 87.75 98.5546 86.99C97.3196 86.23 96.7021 85.185 96.7021 83.855C96.7021 82.316 97.5666 81.2235 99.2956 80.5775C97.7566 79.9695 96.9871 79.0575 96.9871 77.8415C96.9871 76.5115 97.7566 75.5995 99.2956 75.1055C98.8016 74.4405 98.5546 73.6615 98.5546 72.7685C98.5546 71.4765 99.0486 70.403 100.037 69.548C101.044 68.693 102.298 68.2655 103.799 68.2655ZM103.884 70.1465C103.048 70.1465 102.336 70.3935 101.747 70.8875C101.158 71.3815 100.835 71.999 100.778 72.74C100.778 72.74 100.778 72.797 100.778 72.911C100.778 73.747 101.063 74.4215 101.633 74.9345C102.203 75.4475 102.944 75.704 103.856 75.704C104.806 75.704 105.575 75.4475 106.164 74.9345C106.772 74.4215 107.076 73.766 107.076 72.968C107.076 72.151 106.772 71.4765 106.164 70.9445C105.556 70.4125 104.796 70.1465 103.884 70.1465ZM103.913 81.2045C102.393 81.2045 101.196 81.4325 100.322 81.8885C99.4476 82.3445 99.0106 82.962 99.0106 83.741C99.0106 84.52 99.4381 85.128 100.293 85.565C101.148 86.021 102.298 86.249 103.742 86.249C105.262 86.249 106.459 86.021 107.333 85.565C108.226 85.109 108.672 84.501 108.672 83.741C108.672 82.943 108.254 82.3255 107.418 81.8885C106.582 81.4325 105.414 81.2045 103.913 81.2045ZM125.04 74.621C125.04 75.343 124.993 75.7895 124.898 75.9605C124.803 76.1125 124.527 76.1885 124.071 76.1885H115.008C114.761 76.1885 114.6 76.2265 114.524 76.3025C114.448 76.3595 114.41 76.464 114.41 76.616C114.41 78.041 114.837 79.2285 115.692 80.1785C116.547 81.1285 117.611 81.6035 118.884 81.6035C119.72 81.6035 120.48 81.3755 121.164 80.9195C121.867 80.4635 122.323 79.884 122.532 79.181L122.789 78.3545C122.922 77.8985 123.235 77.6705 123.729 77.6705C124.432 77.6705 124.784 78.0315 124.784 78.7535C124.784 79.9885 124.157 81.0905 122.903 82.0595C121.649 83.0095 120.224 83.4845 118.628 83.4845C116.633 83.4845 115.046 82.8195 113.868 81.4895C112.69 80.1405 112.101 78.3355 112.101 76.0745C112.101 73.7565 112.728 71.8755 113.982 70.4315C115.236 68.9875 116.87 68.2655 118.884 68.2655C120.67 68.2655 122.143 68.864 123.302 70.061C124.461 71.258 125.04 72.778 125.04 74.621ZM114.695 73.88C114.695 74.146 114.904 74.279 115.322 74.279H122.133C122.532 74.279 122.732 74.146 122.732 73.88C122.732 72.873 122.352 71.999 121.592 71.258C120.832 70.517 119.939 70.1465 118.913 70.1465C117.849 70.1465 116.88 70.536 116.006 71.315C115.132 72.075 114.695 72.93 114.695 73.88ZM131.462 69.5765V70.346C132.45 68.959 133.77 68.2655 135.423 68.2655C136.753 68.2655 137.827 68.6455 138.644 69.4055C139.48 70.1465 139.898 71.106 139.898 72.284C139.898 73.12 139.689 73.804 139.271 74.336C138.853 74.849 138.302 75.1055 137.618 75.1055C137.181 75.1055 136.81 74.9725 136.506 74.7065C136.202 74.4405 136.05 74.1175 136.05 73.7375C136.05 73.4335 136.164 73.1675 136.392 72.9395C136.62 72.6925 136.886 72.569 137.19 72.569C137.247 72.569 137.371 72.5975 137.561 72.6545C137.675 72.4265 137.732 72.2175 137.732 72.0275C137.732 71.4765 137.485 71.011 136.991 70.631C136.516 70.251 135.917 70.061 135.195 70.061C133.713 70.061 132.725 70.726 132.231 72.056C131.927 72.873 131.775 74.108 131.775 75.761V77.642C131.775 78.915 131.785 79.6275 131.804 79.7795C131.899 80.8625 132.193 81.404 132.687 81.404C132.934 81.404 133.191 81.366 133.457 81.29C133.666 81.233 133.846 81.2045 133.998 81.2045C134.606 81.2045 134.91 81.5085 134.91 82.1165C134.91 82.7815 134.521 83.114 133.742 83.114H133.628C133.343 83.114 132.906 83.076 132.317 83C131.747 82.943 131.319 82.9145 131.034 82.9145C130.274 82.9145 129.676 82.9335 129.239 82.9715L127.643 83.114C126.864 83.114 126.474 82.7815 126.474 82.1165C126.474 81.5275 126.835 81.233 127.557 81.233C127.747 81.233 127.89 81.2425 127.985 81.2615L128.412 81.347C128.602 81.385 128.735 81.404 128.811 81.404C129.286 81.404 129.543 80.967 129.581 80.093L129.638 78.6395L129.552 72.17C129.495 71.049 129.21 70.4885 128.697 70.4885C128.545 70.4885 128.336 70.517 128.07 70.574C127.804 70.631 127.595 70.6595 127.443 70.6595C126.816 70.6595 126.503 70.3555 126.503 69.7475C126.503 69.0825 126.911 68.75 127.728 68.75C127.918 68.75 128.203 68.7785 128.583 68.8355C128.963 68.8735 129.248 68.8925 129.438 68.8925C129.59 68.8925 129.837 68.8735 130.179 68.8355C130.331 68.7975 130.512 68.7785 130.721 68.7785C131.215 68.7785 131.462 69.0445 131.462 69.5765ZM151.589 76.6445C151.589 76.3405 151.722 76.084 151.988 75.875C151.817 75.78 151.674 75.7325 151.56 75.7325C151.142 75.7325 150.772 75.9605 150.449 76.4165C150.145 76.8535 149.993 77.3665 149.993 77.9555C149.993 79.0005 150.401 79.865 151.218 80.549C152.035 81.233 153.08 81.575 154.353 81.575C157.222 81.575 158.818 80.283 159.141 77.699C159.274 76.616 159.341 75.1245 159.341 73.2245V72.3125L159.312 67.781C159.312 66.375 158.828 65.672 157.859 65.672C157.593 65.672 157.393 65.691 157.26 65.729C156.956 65.786 156.7 65.8145 156.491 65.8145C156.244 65.8145 156.035 65.729 155.864 65.558C155.693 65.368 155.607 65.14 155.607 64.874C155.607 64.209 156.025 63.8765 156.861 63.8765C156.975 63.8765 157.108 63.886 157.26 63.905L158.771 64.1045C159.341 64.1805 159.93 64.2185 160.538 64.2185C161.108 64.2185 161.754 64.171 162.476 64.076L163.787 63.905C163.863 63.886 163.996 63.8765 164.186 63.8765C165.022 63.8765 165.44 64.209 165.44 64.874C165.44 65.501 165.136 65.8145 164.528 65.8145C164.338 65.8145 164.081 65.786 163.758 65.729C163.625 65.691 163.426 65.672 163.16 65.672C162.191 65.672 161.706 66.375 161.706 67.781V73.2245C161.706 76.0745 161.592 77.984 161.364 78.953C161.155 79.808 160.728 80.5965 160.082 81.3185C158.695 82.8575 156.814 83.627 154.439 83.627C152.444 83.627 150.819 83.114 149.565 82.088C148.33 81.043 147.713 79.7035 147.713 78.0695C147.713 76.8535 148.093 75.837 148.853 75.02C149.632 74.184 150.591 73.766 151.731 73.766C152.548 73.766 153.213 73.9845 153.726 74.4215C154.239 74.8395 154.496 75.3905 154.496 76.0745C154.496 76.5495 154.344 76.9675 154.04 77.3285C153.736 77.6705 153.375 77.8415 152.957 77.8415C152.596 77.8415 152.273 77.7275 151.988 77.4995C151.722 77.2525 151.589 76.9675 151.589 76.6445ZM172.483 83.4845C170.488 83.4845 168.892 82.8005 167.695 81.4325C166.498 80.0455 165.9 78.193 165.9 75.875C165.9 73.557 166.498 71.714 167.695 70.346C168.911 68.959 170.536 68.2655 172.569 68.2655C174.64 68.2655 176.274 68.94 177.471 70.289C178.668 71.638 179.266 73.4715 179.266 75.7895C179.266 78.1075 178.649 79.9695 177.414 81.3755C176.179 82.7815 174.535 83.4845 172.483 83.4845ZM172.626 70.1465C171.296 70.1465 170.251 70.612 169.491 71.543C168.731 72.474 168.313 73.7945 168.237 75.5045C168.237 75.5045 168.237 75.628 168.237 75.875C168.237 77.661 168.607 79.067 169.348 80.093C170.108 81.1 171.163 81.6035 172.512 81.6035C173.899 81.6035 174.982 81.1 175.761 80.093C176.559 79.067 176.958 77.6515 176.958 75.8465C176.958 72.0465 175.514 70.1465 172.626 70.1465ZM186.104 74.735V78.44C186.104 79.39 186.113 79.9505 186.132 80.1215C186.227 80.9765 186.484 81.404 186.902 81.404C186.997 81.404 187.234 81.3565 187.614 81.2615C187.709 81.2235 187.852 81.2045 188.042 81.2045C188.764 81.2045 189.125 81.518 189.125 82.145C189.125 82.411 189.001 82.639 188.754 82.829C188.526 83.019 188.232 83.114 187.871 83.114C187.567 83.114 187.101 83.076 186.474 83C185.866 82.905 185.41 82.8575 185.106 82.8575C184.612 82.8575 184.061 82.8955 183.453 82.9715C182.712 83.0665 182.218 83.114 181.971 83.114C181.211 83.114 180.831 82.791 180.831 82.145C180.831 81.518 181.154 81.2045 181.8 81.2045C181.952 81.2045 182.171 81.233 182.456 81.29C182.76 81.347 182.988 81.3755 183.14 81.3755C183.596 81.3755 183.871 80.7675 183.966 79.5515C183.966 79.4755 183.966 78.649 183.966 77.072V74.735C183.966 73.158 183.966 72.3315 183.966 72.2555C183.871 71.0585 183.586 70.46 183.111 70.46C182.959 70.46 182.741 70.498 182.456 70.574C182.19 70.631 181.99 70.6595 181.857 70.6595C181.173 70.6595 180.831 70.3555 180.831 69.7475C180.831 69.1015 181.249 68.7785 182.085 68.7785C182.446 68.7785 182.703 68.788 182.855 68.807C183.463 68.883 183.852 68.921 184.023 68.921C184.175 68.921 184.403 68.902 184.707 68.864C185.03 68.807 185.268 68.7785 185.42 68.7785C185.971 68.7785 186.246 69.149 186.246 69.89C186.246 69.966 186.237 70.08 186.218 70.232C186.199 70.384 186.189 70.498 186.189 70.574C186.17 70.726 186.151 71.315 186.132 72.341C186.113 73.12 186.104 73.918 186.104 74.735ZM184.622 67.268C184.185 67.268 183.805 67.116 183.482 66.812C183.178 66.489 183.026 66.109 183.026 65.672C183.026 65.235 183.178 64.8645 183.482 64.5605C183.805 64.2565 184.185 64.1045 184.622 64.1045C185.059 64.1045 185.429 64.2565 185.733 64.5605C186.056 64.8645 186.218 65.235 186.218 65.672C186.218 66.109 186.056 66.489 185.733 66.812C185.429 67.116 185.059 67.268 184.622 67.268ZM194.67 69.6335V70.4315C195.81 68.9875 197.33 68.2655 199.23 68.2655C200.256 68.2655 201.225 68.5315 202.137 69.0635C203.049 69.5765 203.666 70.2225 203.989 71.0015C204.255 71.6475 204.388 72.493 204.388 73.538V78.953C204.388 79.77 204.398 80.2545 204.417 80.4065C204.512 81.0525 204.768 81.3755 205.186 81.3755C205.357 81.3755 205.576 81.3565 205.842 81.3185C206.127 81.2615 206.326 81.233 206.44 81.233C206.687 81.233 206.896 81.3185 207.067 81.4895C207.257 81.6605 207.352 81.8695 207.352 82.1165C207.352 82.4015 207.238 82.639 207.01 82.829C206.782 83.019 206.507 83.114 206.184 83.114C205.918 83.114 205.481 83.076 204.873 83C204.265 82.924 203.695 82.886 203.163 82.886C202.669 82.886 202.26 82.905 201.937 82.943C200.987 83.057 200.484 83.114 200.427 83.114C199.667 83.114 199.287 82.7815 199.287 82.1165C199.287 81.5275 199.61 81.233 200.256 81.233C200.408 81.233 200.579 81.252 200.769 81.29C201.13 81.366 201.358 81.404 201.453 81.404C201.909 81.404 202.156 80.8815 202.194 79.8365L202.251 78.383L202.279 76.6445V74.4785C202.279 73.4715 202.232 72.778 202.137 72.398C201.966 71.676 201.595 71.1155 201.025 70.7165C200.398 70.2795 199.686 70.061 198.888 70.061C197.368 70.061 196.275 70.6025 195.61 71.6855C195.154 72.4265 194.926 73.69 194.926 75.476V79.2665C194.926 80.1025 194.983 80.6725 195.097 80.9765C195.211 81.2805 195.42 81.4325 195.724 81.4325C195.876 81.4325 196.085 81.3945 196.351 81.3185C196.617 81.2425 196.836 81.2045 197.007 81.2045C197.596 81.2045 197.89 81.5275 197.89 82.1735C197.89 82.8005 197.51 83.114 196.75 83.114C196.598 83.114 196.104 83.057 195.268 82.943C194.85 82.886 194.385 82.8575 193.872 82.8575C193.473 82.8575 192.941 82.8955 192.276 82.9715C191.44 83.0665 190.965 83.114 190.851 83.114C190.053 83.114 189.654 82.791 189.654 82.145C189.654 81.537 189.958 81.233 190.566 81.233C190.661 81.233 190.832 81.2615 191.079 81.3185C191.345 81.3755 191.601 81.404 191.848 81.404C192.418 81.404 192.713 80.853 192.732 79.751L192.789 76.5875V73.139L192.732 72.1415C192.694 71.4955 192.608 71.0585 192.475 70.8305C192.361 70.5835 192.152 70.46 191.848 70.46C191.715 70.46 191.516 70.4885 191.25 70.5455C191.003 70.5835 190.813 70.6025 190.68 70.6025C189.996 70.6025 189.654 70.2985 189.654 69.6905C189.654 69.0635 190.081 68.75 190.936 68.75C191.05 68.75 191.145 68.7595 191.221 68.7785L192.276 68.8925C192.58 68.8925 192.846 68.8735 193.074 68.8355C193.568 68.7975 193.824 68.7785 193.843 68.7785C194.394 68.7785 194.67 69.0635 194.67 69.6335ZM216.293 79.067L216.35 77.243C216.369 76.464 216.711 76.0745 217.376 76.0745C218.041 76.0745 218.374 76.5115 218.374 77.3855C218.374 79.4565 218.108 80.9005 217.576 81.7175C216.854 82.8195 215.666 83.3705 214.013 83.3705C212.493 83.3705 211.41 82.886 210.764 81.917C210.289 81.214 210.052 80.017 210.052 78.326V71.486C210.052 71.087 209.871 70.8875 209.51 70.8875H208.598C208.294 70.8875 208.038 70.7925 207.829 70.6025C207.639 70.3935 207.544 70.1465 207.544 69.8615C207.544 69.5955 207.639 69.358 207.829 69.149C208.038 68.94 208.266 68.8355 208.513 68.8355H209.624C209.947 68.8355 210.109 68.655 210.109 68.294V65.3585C210.109 64.6365 210.479 64.2755 211.22 64.2755C211.904 64.2755 212.246 64.6365 212.246 65.3585V68.408C212.246 68.693 212.417 68.8355 212.759 68.8355H215.866C216.588 68.8355 216.949 69.168 216.949 69.833C216.949 70.536 216.559 70.8875 215.78 70.8875H212.645C212.379 70.8875 212.246 71.087 212.246 71.486V78.497C212.246 80.492 212.902 81.4895 214.213 81.4895C215.543 81.4895 216.236 80.682 216.293 79.067Z" fill="white"/>
<path d="M11.25 45.65C12.3833 45.65 12.95 44.6167 12.95 42.55V28.15C12.95 25.9167 12.1333 24.8 10.5 24.8C8.86667 24.8 8.05 25.3667 8.05 26.5C8.05 26.8333 8.1 27.35 8.2 28.05C8.33333 28.7167 8.4 29.2167 8.4 29.55C8.4 32.5167 7.15 34 4.65 34C3.48333 34 2.56667 33.6333 1.9 32.9C1.23333 32.1333 0.9 31.1167 0.9 29.85C0.9 29.4167 0.966667 28.6333 1.1 27.5C1.2 26.6333 1.25 25.8333 1.25 25.1C1.25 24.7 1.2 23.8833 1.1 22.65C1.03333 21.8167 1 21.15 1 20.65C1 19.1833 1.73333 18.45 3.2 18.45C3.96667 18.45 4.93333 18.5 6.1 18.6C8.76667 18.8333 12.5 18.95 17.3 18.95C22.1333 18.95 25.8833 18.8333 28.55 18.6C29.7167 18.5 30.6667 18.45 31.4 18.45C32.9 18.45 33.65 19.1833 33.65 20.65C33.65 21.15 33.6 21.9 33.5 22.9C33.4333 23.8667 33.4 24.6 33.4 25.1C33.4 25.6333 33.45 26.4333 33.55 27.5C33.6833 28.9 33.75 29.7 33.75 29.9C33.75 31.1667 33.4 32.1667 32.7 32.9C32.0333 33.6333 31.1333 34 30 34C27.5 34 26.25 32.5667 26.25 29.7C26.25 29.3 26.3 28.7667 26.4 28.1C26.5 27.4333 26.55 26.9333 26.55 26.6C26.55 25.4 25.8167 24.8 24.35 24.8C23.3833 24.8 22.7 25.05 22.3 25.55C21.9 26.05 21.7 26.9167 21.7 28.15V42.55C21.7 44.6167 22.2667 45.65 23.4 45.65C23.7667 45.65 24.3 45.6 25 45.5C25.7333 45.3667 26.2833 45.3 26.65 45.3C28.65 45.3 29.65 46.3 29.65 48.3C29.65 50.9333 28.4 52.25 25.9 52.25C24.9333 52.25 23.7833 52.1833 22.45 52.05C20.45 51.85 18.7333 51.75 17.3 51.75C15.8333 51.75 14.1167 51.85 12.15 52.05C10.85 52.1833 9.7 52.25 8.7 52.25C6.2 52.25 4.95 51.0333 4.95 48.6C4.95 46.4 5.96667 45.3 8 45.3C8.36667 45.3 8.9 45.3667 9.6 45.5C10.3333 45.6 10.8833 45.65 11.25 45.65ZM48.1867 52.85C44.0534 52.85 40.8534 51.6833 38.5867 49.35C36.3534 47.0167 35.2367 43.7333 35.2367 39.5C35.2367 35.3 36.3534 32.0333 38.5867 29.7C40.8201 27.3333 43.9534 26.15 47.9867 26.15C51.9534 26.15 55.0701 27.3167 57.3367 29.65C59.6367 31.9833 60.7867 35.1833 60.7867 39.25C60.7867 43.5167 59.6701 46.85 57.4367 49.25C55.2367 51.65 52.1534 52.85 48.1867 52.85ZM47.9867 32.3C46.5201 32.3 45.3534 32.95 44.4867 34.25C43.6534 35.5167 43.2367 37.2667 43.2367 39.5C43.2367 41.7667 43.6534 43.5333 44.4867 44.8C45.3534 46.0667 46.5534 46.7 48.0867 46.7C51.1867 46.7 52.7367 44.3 52.7367 39.5C52.7367 34.7 51.1534 32.3 47.9867 32.3ZM73.8594 28.35V30.65C76.3594 27.65 79.1427 26.15 82.2094 26.15C84.776 26.15 86.8927 27.4 88.5594 29.9C90.226 28.4667 91.6427 27.4833 92.8094 26.95C94.0094 26.4167 95.3927 26.15 96.9594 26.15C100.126 26.15 102.493 27.2 104.059 29.3C105.126 30.7333 105.659 33.0333 105.659 36.2V43.85C105.659 45.55 105.976 46.4 106.609 46.4C106.809 46.4 107.076 46.35 107.409 46.25C107.576 46.1833 107.826 46.15 108.159 46.15C109.626 46.15 110.359 47.0167 110.359 48.75C110.359 49.7833 110.093 50.6167 109.559 51.25C109.026 51.8833 108.326 52.2 107.459 52.2C107.359 52.2 106.876 52.15 106.009 52.05L104.909 51.9C104.376 51.8333 103.676 51.8 102.809 51.8C101.743 51.8 100.709 51.8667 99.7094 52C98.7094 52.1333 98.0094 52.2 97.6094 52.2C96.8094 52.2 96.1427 51.9 95.6094 51.3C95.1094 50.6667 94.8594 49.8833 94.8594 48.95C94.8594 47.4167 95.476 46.5333 96.7094 46.3C97.3427 46.2 97.7094 46.0167 97.8094 45.75C97.9427 45.4833 98.0094 44.75 98.0094 43.55V38.4C98.0094 36.2667 97.776 34.8167 97.3094 34.05C96.876 33.25 96.026 32.85 94.7594 32.85C91.926 32.85 90.5094 34.8667 90.5094 38.9V43.55C90.5094 44.6833 90.5594 45.4 90.6594 45.7C90.7594 46 91.026 46.2 91.4594 46.3C92.4927 46.5333 93.0094 47.3667 93.0094 48.8C93.0094 51.0667 92.076 52.2 90.2094 52.2C89.8427 52.2 89.326 52.15 88.6594 52.05C87.5594 51.8833 86.826 51.8 86.4594 51.8C86.0594 51.8 85.4594 51.8667 84.6594 52C83.8927 52.1333 83.3094 52.2 82.9094 52.2C81.276 52.2 80.4594 51.15 80.4594 49.05C80.4594 47.55 80.976 46.6667 82.0094 46.4C82.576 46.2667 82.876 45.8667 82.9094 45.2C82.9427 44.3 82.9594 43.75 82.9594 43.55V37.9C82.9594 36 82.726 34.6833 82.2594 33.95C81.826 33.2167 81.026 32.85 79.8594 32.85C76.926 32.85 75.4594 34.8667 75.4594 38.9V44.95C75.4594 45.4833 75.526 45.8333 75.6594 46C75.7927 46.1333 76.126 46.25 76.6594 46.35C77.9594 46.5833 78.6094 47.45 78.6094 48.95C78.6094 51.1167 77.6927 52.2 75.8594 52.2C75.2927 52.2 74.4427 52.1333 73.3094 52C72.2094 51.8667 71.376 51.8 70.8094 51.8C70.0427 51.8 69.2594 51.85 68.4594 51.95C67.126 52.1167 66.276 52.2 65.9094 52.2C64.976 52.2 64.226 51.9 63.6594 51.3C63.126 50.6667 62.8594 49.8667 62.8594 48.9C62.8594 47 63.6594 46.05 65.2594 46.05C65.526 46.05 65.826 46.1167 66.1594 46.25C66.4927 46.35 66.7427 46.4 66.9094 46.4C67.476 46.4 67.7594 45.4667 67.7594 43.6V35.5C67.7594 33.6 67.476 32.65 66.9094 32.65C66.776 32.65 66.5094 32.7167 66.1094 32.85C65.7427 32.95 65.4594 33 65.2594 33C63.6594 33 62.8594 32.0667 62.8594 30.2C62.8594 29.2333 63.126 28.4333 63.6594 27.8C64.226 27.1667 64.9594 26.85 65.8594 26.85C66.0594 26.85 66.6094 26.9333 67.5094 27.1C68.0427 27.2 68.5427 27.25 69.0094 27.25C69.4094 27.25 69.9927 27.1833 70.7594 27.05C71.5594 26.9167 72.1594 26.85 72.5594 26.85C73.426 26.85 73.8594 27.35 73.8594 28.35ZM122.102 28.35V30.65C124.602 27.65 127.385 26.15 130.452 26.15C133.018 26.15 135.135 27.4 136.802 29.9C138.468 28.4667 139.885 27.4833 141.052 26.95C142.252 26.4167 143.635 26.15 145.202 26.15C148.368 26.15 150.735 27.2 152.302 29.3C153.368 30.7333 153.902 33.0333 153.902 36.2V43.85C153.902 45.55 154.218 46.4 154.852 46.4C155.052 46.4 155.318 46.35 155.652 46.25C155.818 46.1833 156.068 46.15 156.402 46.15C157.868 46.15 158.602 47.0167 158.602 48.75C158.602 49.7833 158.335 50.6167 157.802 51.25C157.268 51.8833 156.568 52.2 155.702 52.2C155.602 52.2 155.118 52.15 154.252 52.05L153.152 51.9C152.618 51.8333 151.918 51.8 151.052 51.8C149.985 51.8 148.952 51.8667 147.952 52C146.952 52.1333 146.252 52.2 145.852 52.2C145.052 52.2 144.385 51.9 143.852 51.3C143.352 50.6667 143.102 49.8833 143.102 48.95C143.102 47.4167 143.718 46.5333 144.952 46.3C145.585 46.2 145.952 46.0167 146.052 45.75C146.185 45.4833 146.252 44.75 146.252 43.55V38.4C146.252 36.2667 146.018 34.8167 145.552 34.05C145.118 33.25 144.268 32.85 143.002 32.85C140.168 32.85 138.752 34.8667 138.752 38.9V43.55C138.752 44.6833 138.802 45.4 138.902 45.7C139.002 46 139.268 46.2 139.702 46.3C140.735 46.5333 141.252 47.3667 141.252 48.8C141.252 51.0667 140.318 52.2 138.452 52.2C138.085 52.2 137.568 52.15 136.902 52.05C135.802 51.8833 135.068 51.8 134.702 51.8C134.302 51.8 133.702 51.8667 132.902 52C132.135 52.1333 131.552 52.2 131.152 52.2C129.518 52.2 128.702 51.15 128.702 49.05C128.702 47.55 129.218 46.6667 130.252 46.4C130.818 46.2667 131.118 45.8667 131.152 45.2C131.185 44.3 131.202 43.75 131.202 43.55V37.9C131.202 36 130.968 34.6833 130.502 33.95C130.068 33.2167 129.268 32.85 128.102 32.85C125.168 32.85 123.702 34.8667 123.702 38.9V44.95C123.702 45.4833 123.768 45.8333 123.902 46C124.035 46.1333 124.368 46.25 124.902 46.35C126.202 46.5833 126.852 47.45 126.852 48.95C126.852 51.1167 125.935 52.2 124.102 52.2C123.535 52.2 122.685 52.1333 121.552 52C120.452 51.8667 119.618 51.8 119.052 51.8C118.285 51.8 117.502 51.85 116.702 51.95C115.368 52.1167 114.518 52.2 114.152 52.2C113.218 52.2 112.468 51.9 111.902 51.3C111.368 50.6667 111.102 49.8667 111.102 48.9C111.102 47 111.902 46.05 113.502 46.05C113.768 46.05 114.068 46.1167 114.402 46.25C114.735 46.35 114.985 46.4 115.152 46.4C115.718 46.4 116.002 45.4667 116.002 43.6V35.5C116.002 33.6 115.718 32.65 115.152 32.65C115.018 32.65 114.752 32.7167 114.352 32.85C113.985 32.95 113.702 33 113.502 33C111.902 33 111.102 32.0667 111.102 30.2C111.102 29.2333 111.368 28.4333 111.902 27.8C112.468 27.1667 113.202 26.85 114.102 26.85C114.302 26.85 114.852 26.9333 115.752 27.1C116.285 27.2 116.785 27.25 117.252 27.25C117.652 27.25 118.235 27.1833 119.002 27.05C119.802 26.9167 120.402 26.85 120.802 26.85C121.668 26.85 122.102 27.35 122.102 28.35ZM170.644 26.85C171.577 26.85 172.044 27.5 172.044 28.8V43.85C172.044 45.55 172.36 46.4 172.994 46.4C173.127 46.4 173.36 46.3667 173.694 46.3C174.06 46.2 174.36 46.15 174.594 46.15C175.994 46.15 176.694 47.0167 176.694 48.75C176.694 51.05 175.71 52.2 173.744 52.2C173.41 52.2 172.477 52.1167 170.944 51.95C170.01 51.85 168.944 51.8 167.744 51.8C167.144 51.8 166.26 51.8667 165.094 52C163.927 52.1333 163.06 52.2 162.494 52.2C161.594 52.2 160.86 51.9 160.294 51.3C159.727 50.6667 159.444 49.8667 159.444 48.9C159.444 47 160.244 46.05 161.844 46.05C161.844 46.05 162.277 46.15 163.144 46.35C163.277 46.3833 163.394 46.4 163.494 46.4C164.094 46.4 164.394 45.4667 164.394 43.6V35.5C164.394 33.6 164.11 32.65 163.544 32.65C163.444 32.65 163.144 32.7333 162.644 32.9C162.31 32.9667 162.044 33 161.844 33C160.244 33 159.444 32.0667 159.444 30.2C159.444 29.2 159.727 28.4 160.294 27.8C160.86 27.1667 161.61 26.85 162.544 26.85C162.91 26.85 163.444 26.9 164.144 27C165.31 27.1667 166.244 27.25 166.944 27.25C167.51 27.25 168.244 27.1833 169.144 27.05C170.044 26.9167 170.544 26.85 170.644 26.85ZM167.794 24.95C166.56 24.95 165.494 24.5 164.594 23.6C163.694 22.7 163.244 21.6333 163.244 20.4C163.244 19.1333 163.677 18.0667 164.544 17.2C165.444 16.3 166.527 15.85 167.794 15.85C169.06 15.85 170.127 16.3 170.994 17.2C171.894 18.0667 172.344 19.1333 172.344 20.4C172.344 21.6667 171.894 22.75 170.994 23.65C170.127 24.5167 169.06 24.95 167.794 24.95ZM179.607 22.8C179.607 21.3667 180.057 20.1667 180.957 19.2C181.89 18.2333 183.023 17.75 184.357 17.75C185.99 17.75 187.357 18.4333 188.457 19.8C189.557 21.1667 190.107 22.8333 190.107 24.8C190.107 28.8333 188.323 33.05 184.757 37.45C183.89 38.5167 183.09 39.05 182.357 39.05C181.123 39.05 180.507 38.3667 180.507 37C180.507 36.1667 180.857 35.2333 181.557 34.2C183.49 31.3667 184.457 29.5167 184.457 28.65C184.457 28.1833 184.073 27.8333 183.307 27.6C180.84 26.9 179.607 25.3 179.607 22.8ZM204.513 26.15C207.08 26.15 209.246 26.8667 211.013 28.3C211.146 26.9 212.046 26.2 213.713 26.2C215.413 26.2 216.263 26.8 216.263 28C216.263 28.4 216.196 28.85 216.063 29.35C215.963 29.95 215.913 30.5167 215.913 31.05C215.913 31.15 215.93 31.4167 215.963 31.85C215.963 32.2833 215.963 32.6667 215.963 33V33.2C215.963 34.9667 215.08 35.85 213.313 35.85C212.046 35.85 210.946 35.2167 210.013 33.95C208.88 32.4167 207.496 31.65 205.863 31.65C203.93 31.65 202.963 32.3167 202.963 33.65C202.963 34.35 203.28 34.85 203.913 35.15C204.546 35.4167 206.213 35.7833 208.913 36.25C211.113 36.65 212.73 37.1 213.763 37.6C214.83 38.1 215.696 38.8167 216.363 39.75C217.196 40.95 217.613 42.35 217.613 43.95C217.613 46.4833 216.63 48.6 214.663 50.3C212.73 52 210.296 52.85 207.363 52.85C204.43 52.85 201.763 51.9167 199.363 50.05C199.363 51.6833 198.53 52.5 196.863 52.5C195.063 52.5 194.163 51.7667 194.163 50.3C194.163 49.9667 194.196 49.45 194.263 48.75C194.33 48.05 194.363 47.5333 194.363 47.2C194.363 46.9 194.33 46.45 194.263 45.85C194.23 45.25 194.213 44.8 194.213 44.5C194.213 43 195.146 42.25 197.013 42.25C197.913 42.25 198.596 42.3833 199.063 42.65C199.53 42.9167 200.03 43.4333 200.563 44.2C201.396 45.4333 202.163 46.25 202.863 46.65C203.563 47.0167 204.596 47.2 205.963 47.2C208.363 47.2 209.563 46.45 209.563 44.95C209.563 43.9167 208.596 43.2 206.663 42.8L203.763 42.2C201.396 41.7 199.713 41.2 198.713 40.7C197.746 40.2 196.98 39.4167 196.413 38.35C195.846 37.25 195.563 36 195.563 34.6C195.563 32.1 196.38 30.0667 198.013 28.5C199.68 26.9333 201.846 26.15 204.513 26.15Z" fill="white"/>
</svg>
