<svg width="54" height="42" viewBox="0 0 54 42" fill="none" xmlns="http://www.w3.org/2000/svg">
<path d="M1 1C12.682 13.8053 25.5406 27.2255 43.5833 29.6312C45.6461 29.9063 47.7013 29.678 49.6073 29.0427" stroke="white" stroke-width="2" stroke-linecap="round" stroke-linejoin="round"/>
<path d="M50.0934 28.2955C48.5124 29.3964 47.1051 30.3841 45.6903 31.3622C43.3731 32.9639 41.0253 34.5236 38.7446 36.1752C37.7938 36.8638 36.9756 37.7378 36.1104 38.5417C35.7388 38.8868 35.405 39.3398 35.7921 39.8068C36.2216 40.3255 36.7419 40.0473 37.1488 39.6892C41.5259 35.8354 46.8058 33.3306 51.5573 30.0358C52.9575 29.0649 53.1858 28.189 52.1344 26.8175C51.8098 26.3786 51.4536 25.964 51.0687 25.577C48.2653 22.8555 45.4828 20.1108 42.6166 17.4568C41.6963 16.6047 40.5546 15.9869 39.488 15.3023C39.3062 15.1858 38.8076 15.1979 38.7729 15.2819C38.6447 15.5901 38.4971 16.0434 38.6347 16.2808C39.1763 17.2148 39.7129 18.1945 40.4538 18.9618C42.242 20.8139 44.148 22.5519 45.998 24.3445C47.0863 25.3987 48.1564 26.4716 49.2396 27.5312C49.4766 27.7625 49.7339 27.9743 50.0934 28.2955Z" fill="white"/>
</svg>
