<svg width="30" height="25" viewBox="0 0 30 25" fill="none" xmlns="http://www.w3.org/2000/svg">
<path d="M29.8269 11.5547C29.7607 10.3179 29.7078 9.05907 29.6565 7.84182C29.6066 6.6564 29.555 5.43059 29.491 4.22543C29.3986 2.47529 28.4981 1.20029 26.8872 0.538227C26.3185 0.304602 25.6184 0.181061 24.7488 0.160216C22.4451 0.105441 20.1027 0.0801225 17.8373 0.0555074C17.0309 0.0467108 16.2246 0.0375052 15.4184 0.0278955C15.3981 0.0110634 15.3726 0.00181325 15.3462 0.00179973H13.4684C11.9424 0.00179973 10.4166 0.00225156 8.89094 0.0029908C8.61169 0.0029908 8.33156 0.00235923 8.05243 0.00158306C7.21326 -0.00129983 6.3454 -0.0036924 5.49188 0.0273541C4.32657 0.0695995 3.42925 0.297434 2.6682 0.744503C1.12688 1.65018 0.304704 2.94295 0.224494 4.5872C0.182238 5.45306 0.168003 6.33374 0.154322 7.18552L0.145386 7.71881C0.133029 8.43369 0.120118 9.14841 0.106658 9.86301C0.0632981 12.2177 0.0183941 14.6525 0.00063088 17.0481C-0.00654059 18.0016 0.041563 19.1298 0.451882 20.2673C1.0587 21.9496 2.178 23.0373 3.87378 23.5923C5.4515 24.0966 7.09677 24.3552 8.75236 24.3587C12.8677 24.4122 17.1842 24.4375 22.2643 24.4375H23.2511C24.1847 24.4533 25.1167 24.352 26.0252 24.1356C28.1081 23.6002 29.3424 22.3172 29.6939 20.322C29.8057 19.6452 29.8834 18.9631 29.9265 18.2783C30.0787 16.2004 29.9646 14.0947 29.854 12.058L29.8269 11.5547ZM10.5816 22.5467C8.79903 22.5413 6.89429 22.4736 5.04372 22.0174C4.2991 21.834 3.76653 21.6191 3.34099 21.3284L12.5249 12.8403L12.7813 13.1175C13.0368 13.3939 13.3006 13.6792 13.5671 13.9619C14.3383 14.7806 15.0949 14.8476 15.9478 14.1733C16.2967 13.8975 16.6283 13.5855 16.9489 13.2848C17.0703 13.1706 17.193 13.0556 17.3174 12.9412L26.3061 22.0592C25.9954 22.3159 25.6199 22.3697 25.2242 22.4263L25.1106 22.4427C24.6856 22.4995 24.2571 22.5259 23.8283 22.5215L21.3141 22.5305C17.7961 22.5437 14.159 22.5576 10.5816 22.5467ZM24.6157 3.59729C23.2707 4.81753 21.8801 6.07918 20.5541 7.36506C19.2308 8.64817 17.9334 9.99288 16.6786 11.2937C16.1593 11.8321 15.6231 12.3881 15.0936 12.9305L3.92442 1.92174C4.00437 1.90038 4.0837 1.8788 4.1624 1.85699C4.46691 1.77372 4.75454 1.69484 5.04835 1.63685C6.50924 1.34856 8.01337 1.38777 9.46808 1.42624C9.793 1.43467 10.1178 1.44301 10.4425 1.44833C10.9366 1.45609 11.4394 1.47264 11.9256 1.48872C12.3478 1.50258 12.7844 1.517 13.2143 1.52553C14.4234 1.54956 15.6326 1.57263 16.8418 1.59473C19.4555 1.64374 22.158 1.69458 24.8157 1.75867C25.1894 1.77939 25.5607 1.83195 25.9256 1.91579C26.069 1.94451 26.2176 1.97398 26.3653 1.9997V2.00338C25.7839 2.53727 25.1901 3.07614 24.6154 3.59772L24.6157 3.59729ZM5.80434 16.9892C4.68415 18.0596 3.52712 19.1655 2.40826 20.2956C1.94355 19.1938 1.70269 18.2895 1.63098 17.3827C1.43239 14.8672 1.51491 12.3633 1.61708 10.0143C1.66375 8.94305 1.68239 7.85352 1.70049 6.79982C1.71285 6.08354 1.72564 5.34283 1.74705 4.61546C1.76911 3.84395 2.02585 3.3026 2.60001 2.82415L11.3271 11.4404C9.55049 13.4086 7.64619 15.2287 5.80367 16.9901L5.80434 16.9892ZM27.8053 20.1075C27.7645 20.3285 27.7099 20.5467 27.6418 20.7607C27.6173 20.8437 27.5928 20.927 27.5697 21.0102L27.5346 21.0219L18.2837 11.9622C21.4816 8.64683 24.5145 5.81933 27.5479 3.32452C27.5609 3.38318 27.5742 3.44027 27.5872 3.49593C27.6412 3.69798 27.6771 3.90443 27.6944 4.11293C27.7967 6.21123 27.8801 8.28201 27.9413 9.85185C27.9988 11.325 28.0478 12.7784 28.0871 14.172C28.1362 15.9367 28.1417 18.0224 27.8046 20.1079L27.8053 20.1075Z" fill="white"/>
</svg>
