<svg width="1006" height="186" viewBox="0 0 1006 186" fill="none" xmlns="http://www.w3.org/2000/svg">
<path d="M102.45 65.95C102.45 76.95 96.3 83.9 84 86.8L87.75 88.3C95.55 91.4 100.7 95.5 103.2 100.6C105.1 104.5 106.05 108.55 106.05 112.75C106.05 122.25 102.6 129.65 95.7 134.95C88.9 140.15 79.35 142.75 67.05 142.75C63.15 142.75 59.05 142.6 54.75 142.3L44.1 141.55C41.3 141.35 38.25 141.25 34.95 141.25C32.55 141.25 29.05 141.5 24.45 142C19.85 142.5 16.55 142.75 14.55 142.75H13.35C10.15 142.75 7.55 141.75 5.55 139.75C3.65 137.75 2.7 135.1 2.7 131.8C2.7 129 3.45 126.65 4.95 124.75C6.55 122.85 8.5 121.9 10.8 121.9C11.7 121.9 12.9 122.1 14.4 122.5C16 122.8 17.2 122.95 18 122.95C20.7 122.95 22.05 119.55 22.05 112.75V71.2C22.05 64.5 20.7 61.15 18 61.15C17.2 61.15 16 61.35 14.4 61.75C12.9 62.05 11.7 62.2 10.8 62.2C8.5 62.2 6.55 61.25 4.95 59.35C3.45 57.45 2.7 55.1 2.7 52.3C2.7 49 3.65 46.35 5.55 44.35C7.55 42.25 10.15 41.2 13.35 41.2C13.55 41.2 13.75 41.2 13.95 41.2C14.25 41.3 14.45 41.35 14.55 41.35L25.2 42.4C28.2 42.7 32.2 42.85 37.2 42.85C41.1 42.85 44.2 42.75 46.5 42.55L56.7 41.65C59 41.45 62.35 41.35 66.75 41.35C73.35 41.35 79.3 42.05 84.6 43.45C89.9 44.85 94.2 47.65 97.5 51.85C100.8 55.95 102.45 60.65 102.45 65.95ZM47.85 76C47.85 78 48.25 79.25 49.05 79.75C49.55 80.15 50.8 80.35 52.8 80.35H57.45C62.65 80.35 66.75 79.4 69.75 77.5C72.85 75.6 74.4 73.05 74.4 69.85C74.4 63.15 69.2 59.8 58.8 59.8C55 59.8 52.4 60.1 51 60.7C48.9 61.7 47.85 63.85 47.85 67.15V76ZM78 111.7C78 107.6 76.15 104.3 72.45 101.8C68.75 99.3 63.85 98.05 57.75 98.05H53.25C51.05 98.05 49.6 98.4 48.9 99.1C48.2 99.7 47.85 100.9 47.85 102.7V113.65C47.85 117.45 48.95 120.1 51.15 121.6C53.35 123 57.35 123.7 63.15 123.7C67.55 123.7 71.1 122.6 73.8 120.4C76.6 118.2 78 115.3 78 111.7ZM174.014 137.8V131.95C167.414 140.35 158.664 144.55 147.764 144.55C143.164 144.55 138.964 143.55 135.164 141.55C131.364 139.55 128.614 136.9 126.914 133.6C125.314 130.2 124.514 124 124.514 115V91.75C124.514 88.25 124.264 86.2 123.764 85.6C123.364 85 122.664 84.7 121.664 84.7H120.164C119.864 84.8 119.364 84.85 118.664 84.85C114.164 84.85 111.914 82.1 111.914 76.6C111.914 69.9 114.964 66.55 121.064 66.55C122.264 66.55 124.114 66.75 126.614 67.15C129.114 67.55 130.964 67.75 132.164 67.75C133.364 67.75 135.164 67.55 137.564 67.15C139.964 66.75 141.764 66.55 142.964 66.55C145.964 66.55 147.464 68.65 147.464 72.85L147.764 112.75C148.064 120.55 151.164 124.45 157.064 124.45C166.064 124.45 170.564 118.2 170.564 105.7V91.75C170.564 86.65 169.414 84.1 167.114 84.1C166.514 84.1 165.714 84.25 164.714 84.55C163.814 84.75 163.064 84.85 162.464 84.85C158.764 84.85 156.914 82.2 156.914 76.9C156.914 70 159.714 66.55 165.314 66.55C166.714 66.55 168.764 66.75 171.464 67.15C174.164 67.55 176.164 67.75 177.464 67.75C177.864 67.75 180.014 67.5 183.914 67C186.214 66.7 187.864 66.55 188.864 66.55C192.064 66.55 193.664 68.35 193.664 71.95V117.55C193.664 122.55 194.614 125.05 196.514 125.05C197.314 125.05 198.014 124.95 198.614 124.75C199.214 124.55 200.064 124.45 201.164 124.45C205.464 124.45 207.614 127.05 207.614 132.25C207.614 139.15 204.664 142.6 198.764 142.6C197.564 142.6 195.764 142.4 193.364 142C191.064 141.6 189.314 141.4 188.114 141.4C187.014 141.4 185.364 141.6 183.164 142C181.064 142.4 179.464 142.6 178.364 142.6C175.464 142.6 174.014 141 174.014 137.8ZM242.522 71.2V83.95C243.922 78.85 245.572 75.1 247.472 72.7C251.872 67.2 258.022 64.45 265.922 64.45C271.422 64.45 276.022 66.25 279.722 69.85C283.522 73.35 285.422 77.7 285.422 82.9C285.422 87 284.222 90.4 281.822 93.1C279.422 95.7 276.372 97 272.672 97C269.872 97 267.472 96.1 265.472 94.3C263.572 92.5 262.622 90.3 262.622 87.7C262.622 86.3 263.272 84.35 264.572 81.85H263.672C256.972 81.85 252.472 85.4 250.172 92.5C248.372 98.2 247.472 104.75 247.472 112.15V117.85C247.472 121.45 247.772 123.75 248.372 124.75C248.772 125.35 249.472 125.65 250.472 125.65C251.372 125.65 252.622 125.45 254.222 125.05C255.822 124.65 257.022 124.45 257.822 124.45C260.022 124.45 261.872 125.25 263.372 126.85C264.972 128.35 265.772 130.2 265.772 132.4C265.772 135.3 264.772 137.75 262.772 139.75C260.872 141.65 258.522 142.6 255.722 142.6C254.222 142.6 251.422 142.35 247.322 141.85C244.822 141.55 241.672 141.4 237.872 141.4C234.072 141.4 230.722 141.55 227.822 141.85C223.022 142.35 220.072 142.6 218.972 142.6C212.772 142.6 209.672 139.25 209.672 132.55C209.672 126.95 212.072 124.15 216.872 124.15C217.672 124.15 218.572 124.35 219.572 124.75C220.572 125.05 221.322 125.2 221.822 125.2C223.522 125.2 224.372 122.4 224.372 116.8V92.5C224.372 86.8 223.522 83.95 221.822 83.95C221.422 83.95 220.622 84.15 219.422 84.55C218.322 84.85 217.472 85 216.872 85C212.072 85 209.672 82.25 209.672 76.75C209.672 73.75 210.472 71.3 212.072 69.4C213.672 67.5 215.722 66.55 218.222 66.55C219.222 66.55 220.622 66.75 222.422 67.15C224.222 67.55 225.922 67.75 227.522 67.75C228.722 67.75 230.472 67.55 232.772 67.15C235.072 66.75 236.772 66.55 237.872 66.55C240.972 66.55 242.522 68.1 242.522 71.2ZM325.332 64.45C325.332 64.45 327.232 64.55 331.032 64.75C331.132 59.65 332.832 55.7 336.132 52.9C339.432 50 343.982 48.55 349.782 48.55C354.482 48.55 358.382 49.75 361.482 52.15C364.682 54.55 366.282 57.6 366.282 61.3C366.282 63.8 365.432 65.9 363.732 67.6C362.132 69.3 360.082 70.15 357.582 70.15C354.782 70.15 352.732 69.1 351.432 67L349.932 64.6C349.532 63.9 348.882 63.55 347.982 63.55C345.882 63.55 344.832 65 344.832 67.9C344.832 68.6 344.882 69.1 344.982 69.4C354.582 72.8 359.382 79.6 359.382 89.8C359.382 97.5 356.382 103.7 350.382 108.4C344.482 113.1 336.682 115.45 326.982 115.45C321.782 115.45 316.432 114.3 310.932 112L310.182 111.7C308.682 112.9 307.932 114.2 307.932 115.6C307.932 119 310.332 121.1 315.132 121.9C316.732 122.2 320.382 122.35 326.082 122.35H327.732L337.332 122.2C346.932 122.1 354.332 123.95 359.532 127.75C364.732 131.55 367.332 136.95 367.332 143.95C367.332 152.85 363.432 159.85 355.632 164.95C347.832 170.15 337.232 172.75 323.832 172.75C311.832 172.75 302.182 170.5 294.882 166C287.682 161.6 284.082 155.7 284.082 148.3C284.082 140.3 289.132 134.75 299.232 131.65C291.232 130.05 287.232 125.5 287.232 118C287.232 114.1 288.082 111.05 289.782 108.85C291.582 106.55 294.732 104.4 299.232 102.4C295.632 98.4 293.832 94 293.832 89.2C293.832 82.2 296.832 76.35 302.832 71.65C308.932 66.85 316.432 64.45 325.332 64.45ZM326.532 80.2C323.732 80.2 321.382 81.15 319.482 83.05C317.682 84.85 316.782 87.15 316.782 89.95C316.782 92.75 317.682 95.1 319.482 97C321.382 98.9 323.732 99.85 326.532 99.85C329.332 99.85 331.632 98.9 333.432 97C335.332 95.1 336.282 92.8 336.282 90.1C336.282 87.3 335.332 84.95 333.432 83.05C331.632 81.15 329.332 80.2 326.532 80.2ZM323.532 139.9C321.132 139.9 318.132 139.7 314.532 139.3C310.032 141.1 307.782 143.4 307.782 146.2C307.782 151.5 313.682 154.15 325.482 154.15C337.382 154.15 343.332 151.5 343.332 146.2C343.332 141.9 339.432 139.75 331.632 139.75C331.332 139.75 329.982 139.8 327.582 139.9C327.582 139.9 326.232 139.9 323.532 139.9ZM443.9 98.05C443.9 102.25 443.35 105.05 442.25 106.45C441.25 107.85 439.2 108.55 436.1 108.55H399.5C397.7 108.55 396.55 108.75 396.05 109.15C395.65 109.45 395.45 110.3 395.45 111.7C395.45 115.9 396.8 119.4 399.5 122.2C402.2 125 405.6 126.4 409.7 126.4C413.9 126.4 418.2 124.1 422.6 119.5C425.6 116.3 428.9 114.7 432.5 114.7C435.5 114.7 437.9 115.55 439.7 117.25C441.6 118.95 442.55 121.1 442.55 123.7C442.55 129.5 439.35 134.45 432.95 138.55C426.65 142.55 418.95 144.55 409.85 144.55C397.95 144.55 388.45 140.95 381.35 133.75C374.25 126.55 370.7 116.95 370.7 104.95C370.7 92.85 374.2 83.1 381.2 75.7C388.3 68.2 397.55 64.45 408.95 64.45C419.55 64.45 428 67.5 434.3 73.6C440.7 79.7 443.9 87.85 443.9 98.05ZM396.2 90.55C396.2 91.15 396.35 91.65 396.65 92.05C396.95 92.45 398 92.65 399.8 92.65H416.6C418.1 92.65 419 92.5 419.3 92.2C419.7 91.8 419.9 91.15 419.9 90.25C419.9 87.65 418.75 85.4 416.45 83.5C414.15 81.5 411.45 80.5 408.35 80.5C404.35 80.5 401.1 82.05 398.6 85.15C397 87.15 396.2 88.95 396.2 90.55ZM483.635 71.2V83.95C485.035 78.85 486.685 75.1 488.585 72.7C492.985 67.2 499.135 64.45 507.035 64.45C512.535 64.45 517.135 66.25 520.835 69.85C524.635 73.35 526.535 77.7 526.535 82.9C526.535 87 525.335 90.4 522.935 93.1C520.535 95.7 517.485 97 513.785 97C510.985 97 508.585 96.1 506.585 94.3C504.685 92.5 503.735 90.3 503.735 87.7C503.735 86.3 504.385 84.35 505.685 81.85H504.785C498.085 81.85 493.585 85.4 491.285 92.5C489.485 98.2 488.585 104.75 488.585 112.15V117.85C488.585 121.45 488.885 123.75 489.485 124.75C489.885 125.35 490.585 125.65 491.585 125.65C492.485 125.65 493.735 125.45 495.335 125.05C496.935 124.65 498.135 124.45 498.935 124.45C501.135 124.45 502.985 125.25 504.485 126.85C506.085 128.35 506.885 130.2 506.885 132.4C506.885 135.3 505.885 137.75 503.885 139.75C501.985 141.65 499.635 142.6 496.835 142.6C495.335 142.6 492.535 142.35 488.435 141.85C485.935 141.55 482.785 141.4 478.985 141.4C475.185 141.4 471.835 141.55 468.935 141.85C464.135 142.35 461.185 142.6 460.085 142.6C453.885 142.6 450.785 139.25 450.785 132.55C450.785 126.95 453.185 124.15 457.985 124.15C458.785 124.15 459.685 124.35 460.685 124.75C461.685 125.05 462.435 125.2 462.935 125.2C464.635 125.2 465.485 122.4 465.485 116.8V92.5C465.485 86.8 464.635 83.95 462.935 83.95C462.535 83.95 461.735 84.15 460.535 84.55C459.435 84.85 458.585 85 457.985 85C453.185 85 450.785 82.25 450.785 76.75C450.785 73.75 451.585 71.3 453.185 69.4C454.785 67.5 456.835 66.55 459.335 66.55C460.335 66.55 461.735 66.75 463.535 67.15C465.335 67.55 467.035 67.75 468.635 67.75C469.835 67.75 471.585 67.55 473.885 67.15C476.185 66.75 477.885 66.55 478.985 66.55C482.085 66.55 483.635 68.1 483.635 71.2ZM597.15 117.55C593.55 117.55 590.8 115.65 588.9 111.85C587.8 113.35 587.25 114.8 587.25 116.2C587.25 118.9 588.45 121.15 590.85 122.95C593.35 124.65 596.5 125.5 600.3 125.5C607.1 125.5 612.15 123.05 615.45 118.15C617.55 115.05 618.6 110.2 618.6 103.6V68.95C618.6 66.15 618.3 64.25 617.7 63.25C616.9 61.85 615.3 61.15 612.9 61.15C611.8 61.15 610.15 61.35 607.95 61.75C605.85 62.05 604.25 62.2 603.15 62.2C600.95 62.2 599.1 61.3 597.6 59.5C596.2 57.7 595.5 55.35 595.5 52.45C595.5 49.05 596.5 46.35 598.5 44.35C600.6 42.35 603.3 41.35 606.6 41.35C608.8 41.35 611.65 41.55 615.15 41.95C620.35 42.55 625.7 42.85 631.2 42.85C634.5 42.85 638.5 42.6 643.2 42.1C648 41.6 651.1 41.35 652.5 41.35C656 41.35 658.85 42.35 661.05 44.35C663.25 46.35 664.35 48.95 664.35 52.15C664.35 54.95 663.5 57.35 661.8 59.35C660.1 61.25 657.95 62.2 655.35 62.2C654.05 62.2 652.8 62 651.6 61.6C649.5 61.3 648.5 61.15 648.6 61.15C646.1 61.15 644.85 63.75 644.85 68.95V108.4C644.85 114.9 644 120.1 642.3 124C640.7 127.9 637.85 131.5 633.75 134.8C625.55 141.4 615.55 144.7 603.75 144.7C592.55 144.7 583.25 141.85 575.85 136.15C568.45 130.35 564.75 123.05 564.75 114.25C564.75 107.15 567.2 101.1 572.1 96.1C577 91 582.85 88.45 589.65 88.45C595.05 88.45 599.65 90.05 603.45 93.25C607.25 96.35 609.15 100.15 609.15 104.65C609.15 108.25 607.95 111.3 605.55 113.8C603.25 116.3 600.45 117.55 597.15 117.55ZM706.474 144.55C694.074 144.55 684.474 141.05 677.674 134.05C670.974 127.05 667.624 117.2 667.624 104.5C667.624 91.9 670.974 82.1 677.674 75.1C684.374 68 693.774 64.45 705.874 64.45C717.774 64.45 727.124 67.95 733.924 74.95C740.824 81.95 744.274 91.55 744.274 103.75C744.274 116.55 740.924 126.55 734.224 133.75C727.624 140.95 718.374 144.55 706.474 144.55ZM705.874 82.9C701.474 82.9 697.974 84.85 695.374 88.75C692.874 92.55 691.624 97.8 691.624 104.5C691.624 111.3 692.874 116.6 695.374 120.4C697.974 124.2 701.574 126.1 706.174 126.1C715.474 126.1 720.124 118.9 720.124 104.5C720.124 90.1 715.374 82.9 705.874 82.9ZM784.392 66.55C787.192 66.55 788.592 68.5 788.592 72.4V117.55C788.592 122.65 789.542 125.2 791.442 125.2C791.842 125.2 792.542 125.1 793.542 124.9C794.642 124.6 795.542 124.45 796.242 124.45C800.442 124.45 802.542 127.05 802.542 132.25C802.542 139.15 799.592 142.6 793.692 142.6C792.692 142.6 789.892 142.35 785.292 141.85C782.492 141.55 779.292 141.4 775.692 141.4C773.892 141.4 771.242 141.6 767.742 142C764.242 142.4 761.642 142.6 759.942 142.6C757.242 142.6 755.042 141.7 753.342 139.9C751.642 138 750.792 135.6 750.792 132.7C750.792 127 753.192 124.15 757.992 124.15C757.992 124.15 759.292 124.45 761.892 125.05C762.292 125.15 762.642 125.2 762.942 125.2C764.742 125.2 765.642 122.4 765.642 116.8V92.5C765.642 86.8 764.792 83.95 763.092 83.95C762.792 83.95 761.892 84.2 760.392 84.7C759.392 84.9 758.592 85 757.992 85C753.192 85 750.792 82.2 750.792 76.6C750.792 73.6 751.642 71.2 753.342 69.4C755.042 67.5 757.292 66.55 760.092 66.55C761.192 66.55 762.792 66.7 764.892 67C768.392 67.5 771.192 67.75 773.292 67.75C774.992 67.75 777.192 67.55 779.892 67.15C782.592 66.75 784.092 66.55 784.392 66.55ZM775.842 60.85C772.142 60.85 768.942 59.5 766.242 56.8C763.542 54.1 762.192 50.9 762.192 47.2C762.192 43.4 763.492 40.2 766.092 37.6C768.792 34.9 772.042 33.55 775.842 33.55C779.642 33.55 782.842 34.9 785.442 37.6C788.142 40.2 789.492 43.4 789.492 47.2C789.492 51 788.142 54.25 785.442 56.95C782.842 59.55 779.642 60.85 775.842 60.85ZM838.131 70.75V77.95C845.831 68.95 854.531 64.45 864.231 64.45C874.631 64.45 881.981 68.35 886.281 76.15C888.581 80.15 889.731 86.45 889.731 95.05V117.55C889.731 122.65 890.731 125.2 892.731 125.2C893.231 125.2 893.981 125.05 894.981 124.75C895.481 124.55 896.231 124.45 897.231 124.45C901.631 124.45 903.831 127.05 903.831 132.25C903.831 139.15 900.831 142.6 894.831 142.6C893.231 142.6 890.831 142.4 887.631 142C884.431 141.6 882.031 141.4 880.431 141.4C877.931 141.4 875.281 141.6 872.481 142C869.681 142.4 867.381 142.6 865.581 142.6C859.681 142.6 856.731 139.55 856.731 133.45C856.731 128.15 858.781 125.35 862.881 125.05C865.581 124.85 866.931 123.6 866.931 121.3V100.3C866.931 94.5 866.181 90.45 864.681 88.15C863.181 85.75 860.631 84.55 857.031 84.55C852.931 84.55 849.531 85.95 846.831 88.75C844.231 91.55 842.931 95.1 842.931 99.4V115C842.931 119.5 843.131 122.25 843.531 123.25C843.931 124.15 845.081 124.75 846.981 125.05C850.581 125.55 852.381 128.25 852.381 133.15C852.381 139.45 849.731 142.6 844.431 142.6C842.931 142.6 841.081 142.45 838.881 142.15C835.181 141.65 832.431 141.4 830.631 141.4C828.831 141.4 826.131 141.6 822.531 142C819.031 142.4 816.381 142.6 814.581 142.6C808.281 142.6 805.131 139.25 805.131 132.55C805.131 126.95 807.531 124.15 812.331 124.15C813.131 124.15 814.031 124.35 815.031 124.75C816.031 125.05 816.781 125.2 817.281 125.2C818.981 125.2 819.831 122.4 819.831 116.8V92.5C819.831 86.8 818.981 83.95 817.281 83.95C816.881 83.95 816.081 84.15 814.881 84.55C813.781 84.85 812.931 85 812.331 85C807.531 85 805.131 82.25 805.131 76.75C805.131 73.75 805.931 71.3 807.531 69.4C809.231 67.5 811.431 66.55 814.131 66.55C814.931 66.55 816.631 66.8 819.231 67.3C820.731 67.6 822.031 67.75 823.131 67.75C824.331 67.75 826.381 67.55 829.281 67.15C832.181 66.75 833.781 66.55 834.081 66.55C836.781 66.55 838.131 67.95 838.131 70.75ZM939.955 87.1V93.25L939.805 102.55L939.505 112.6C939.405 115.9 939.355 117.25 939.355 116.65C939.355 122.55 941.255 125.5 945.055 125.5C948.655 125.5 950.455 122.85 950.455 117.55C950.455 116.75 950.405 116.15 950.305 115.75C950.305 115.25 950.305 114.6 950.305 113.8C950.205 113.1 950.155 112.6 950.155 112.3C950.155 106.9 952.855 104.2 958.255 104.2C964.555 104.2 967.705 109.25 967.705 119.35C967.705 127.25 965.355 133.45 960.655 137.95C955.955 142.35 949.405 144.55 941.005 144.55C924.505 144.55 916.255 135.85 916.255 118.45C916.255 115.65 916.355 111.45 916.555 105.85C916.855 100.25 917.005 96.05 917.005 93.25V88.45C917.005 85.95 916.755 84.4 916.255 83.8C915.855 83.1 914.805 82.75 913.105 82.75H910.705C908.805 82.75 907.255 82.05 906.055 80.65C904.855 79.15 904.255 77.25 904.255 74.95C904.255 72.65 904.855 70.7 906.055 69.1C907.355 67.4 908.855 66.55 910.555 66.55H913.405C915.805 66.55 917.205 65.85 917.605 64.45C917.905 63.65 918.055 62.3 918.055 60.4V53.05C918.055 49.55 918.955 47.15 920.755 45.85C922.655 44.55 926.055 43.9 930.955 43.9C934.455 43.9 936.805 44.4 938.005 45.4C939.305 46.4 939.955 48.6 939.955 52V60.1C939.955 63 940.205 64.8 940.705 65.5C941.305 66.2 942.755 66.55 945.055 66.55H955.855C961.755 66.55 964.705 69.3 964.705 74.8C964.705 80.1 962.005 82.75 956.605 82.75H944.305C942.205 82.75 940.955 83.1 940.555 83.8C940.155 84.5 939.955 85.6 939.955 87.1Z" fill="white"/>
<path d="M124.904 49.0921C124.904 51.8421 125.839 53.2171 127.709 53.2171C128.002 53.2171 128.442 53.1804 129.029 53.1071C129.615 52.9971 130.055 52.9421 130.349 52.9421C130.825 52.9421 131.229 53.1254 131.559 53.4921C131.925 53.8221 132.109 54.2254 132.109 54.7021C132.109 55.9854 131.284 56.6271 129.634 56.6271C129.56 56.6271 129.45 56.6271 129.304 56.6271C129.12 56.5904 128.992 56.5721 128.919 56.5721L126.224 56.1871C125.197 56.0404 124.042 55.9671 122.759 55.9671C121.365 55.9671 120.137 56.0404 119.074 56.1871L116.324 56.5721C116.214 56.5721 116.085 56.5904 115.939 56.6271C115.755 56.6271 115.627 56.6271 115.554 56.6271C113.94 56.6271 113.134 55.9854 113.134 54.7021C113.134 53.5287 113.72 52.9421 114.894 52.9421C115.187 52.9421 115.627 52.9971 116.214 53.1071C116.8 53.1804 117.24 53.2171 117.534 53.2171C119.367 53.2171 120.284 51.8421 120.284 49.0921V45.2421L120.339 40.402V35.727L120.284 26.762C120.284 24.1587 118.945 22.857 116.269 22.857H114.564C111.924 22.857 110.604 24.1404 110.604 26.707C110.604 27.6237 110.622 28.2471 110.659 28.5771L110.879 30.612C110.915 30.942 110.934 31.4004 110.934 31.987C110.934 34.297 110.219 35.452 108.789 35.452C107.432 35.452 106.754 34.6087 106.754 32.922C106.754 32.4454 106.79 31.6204 106.864 30.447C106.974 28.687 107.029 27.5687 107.029 27.0921C107.029 26.1754 106.992 25.222 106.919 24.232C106.772 22.2887 106.699 21.4637 106.699 21.7571C106.699 20.2171 107.395 19.4471 108.789 19.4471C109.302 19.4471 110.494 19.502 112.364 19.612C112.547 19.612 114.05 19.6487 116.874 19.7221L123.144 19.832C123.877 19.832 125.839 19.7954 129.029 19.7221C129.725 19.7221 130.917 19.667 132.604 19.557C134.107 19.447 135.28 19.392 136.124 19.392C137.957 19.392 138.874 20.1437 138.874 21.647V21.7571C138.874 22.1237 138.819 22.802 138.709 23.7921C138.635 24.7821 138.544 25.8454 138.434 26.982V27.5871C138.434 28.1371 138.489 28.9987 138.599 30.1721C138.745 31.7121 138.819 32.6654 138.819 33.032C138.819 34.5354 138.104 35.287 136.674 35.287C135.28 35.287 134.584 34.3704 134.584 32.537C134.584 31.877 134.639 30.9054 134.749 29.622C134.859 28.302 134.914 27.312 134.914 26.652C134.914 24.122 133.465 22.857 130.569 22.857H129.029C127.672 22.857 126.7 23.1504 126.114 23.737C125.527 24.287 125.197 25.222 125.124 26.542L124.959 30.392L124.904 49.0921ZM154.331 57.2871C150.481 57.2871 147.401 55.9671 145.091 53.3271C142.781 50.6504 141.626 47.0754 141.626 42.6021C141.626 38.1287 142.781 34.572 145.091 31.932C147.438 29.2554 150.573 27.917 154.496 27.917C158.493 27.917 161.646 29.2187 163.956 31.8221C166.266 34.4254 167.421 37.9637 167.421 42.437C167.421 46.9104 166.229 50.5037 163.846 53.2171C161.463 55.9304 158.291 57.2871 154.331 57.2871ZM154.606 31.547C152.039 31.547 150.023 32.4454 148.556 34.2421C147.089 36.0387 146.283 38.5871 146.136 41.8871C146.136 41.8871 146.136 42.1254 146.136 42.6021C146.136 46.0487 146.851 48.7621 148.281 50.7421C149.748 52.6854 151.783 53.6571 154.386 53.6571C157.063 53.6571 159.153 52.6854 160.656 50.7421C162.196 48.7621 162.966 46.0304 162.966 42.547C162.966 35.2137 160.179 31.547 154.606 31.547ZM179.956 30.502V32.097C181.276 30.5204 182.522 29.4387 183.696 28.8521C184.869 28.2287 186.336 27.917 188.096 27.917C191.689 27.917 194.329 29.3104 196.016 32.097C197.262 30.5571 198.527 29.4754 199.811 28.8521C201.094 28.2287 202.744 27.917 204.761 27.917C206.851 27.917 208.721 28.357 210.371 29.237C212.204 30.227 213.469 31.6204 214.166 33.417C214.642 34.6271 214.881 36.5337 214.881 39.137V44.4721L214.826 48.5971C214.826 50.1004 214.844 51.0171 214.881 51.3471C215.064 52.6671 215.541 53.3271 216.311 53.3271C216.567 53.3271 216.952 53.2721 217.466 53.1621C217.979 53.0521 218.364 52.9971 218.621 52.9971C219.904 52.9971 220.546 53.5471 220.546 54.6471C220.546 55.9304 219.812 56.5721 218.346 56.5721C217.796 56.5721 216.952 56.4987 215.816 56.3521C214.716 56.2421 213.872 56.1871 213.286 56.1871C212.662 56.1871 211.746 56.2421 210.536 56.3521C209.362 56.4987 208.464 56.5721 207.841 56.5721C206.301 56.5721 205.531 55.9304 205.531 54.6471C205.531 53.5471 206.117 52.9971 207.291 52.9971C207.437 52.9971 207.804 53.0337 208.391 53.1071C208.611 53.1804 208.904 53.2171 209.271 53.2171C209.894 53.2171 210.279 52.9054 210.426 52.2821C210.609 51.6587 210.719 50.1004 210.756 47.6071L210.811 44.2521V40.6221C210.811 38.092 210.609 36.2587 210.206 35.1221C209.839 33.9487 209.124 33.032 208.061 32.372C206.997 31.712 205.787 31.382 204.431 31.382C201.827 31.382 200.012 32.2804 198.986 34.077C198.179 35.507 197.776 38.0004 197.776 41.557V45.4621C197.776 48.9087 197.849 51.0721 197.996 51.9521C198.179 52.7954 198.619 53.2171 199.316 53.2171C199.536 53.2171 199.847 53.1804 200.251 53.1071C200.691 52.9971 201.021 52.9421 201.241 52.9421C201.754 52.9421 202.176 53.1254 202.506 53.4921C202.872 53.8221 203.056 54.2437 203.056 54.7571C203.056 55.9671 202.194 56.5721 200.471 56.5721C199.921 56.5721 199.096 56.4987 197.996 56.3521C196.932 56.2054 196.126 56.1321 195.576 56.1321C194.806 56.1321 193.962 56.2054 193.046 56.3521C192.129 56.4987 191.322 56.5721 190.626 56.5721C189.122 56.5721 188.371 55.9487 188.371 54.7021C188.371 53.5654 188.921 52.9971 190.021 52.9971C190.424 52.9971 190.736 53.0337 190.956 53.1071C191.469 53.2171 191.854 53.2721 192.111 53.2721C192.991 53.2721 193.449 52.3371 193.486 50.4671L193.541 47.8821C193.577 47.0754 193.596 46.2871 193.596 45.5171C193.632 44.8571 193.651 44.5087 193.651 44.4721V39.907C193.651 36.7171 193.211 34.4987 192.331 33.252C191.487 32.0054 189.966 31.382 187.766 31.382C185.346 31.382 183.494 32.262 182.211 34.022C181.147 35.452 180.616 37.9454 180.616 41.5021V48.8171C180.616 50.2837 180.634 51.1454 180.671 51.4021C180.817 52.6487 181.221 53.2721 181.881 53.2721C182.064 53.2721 182.449 53.1987 183.036 53.0521C183.109 53.0521 183.219 53.0337 183.366 52.9971C183.512 52.9971 183.641 52.9971 183.751 52.9971C185.181 52.9971 185.896 53.6021 185.896 54.8121C185.896 55.9854 185.071 56.5721 183.421 56.5721C182.797 56.5721 182.027 56.5171 181.111 56.4071C179.864 56.2604 178.801 56.1871 177.921 56.1871C177.481 56.1871 176.674 56.2421 175.501 56.3521C173.924 56.4987 172.971 56.5721 172.641 56.5721C171.174 56.5721 170.441 55.9487 170.441 54.7021C170.441 53.5654 171.137 52.9971 172.531 52.9971C172.604 52.9971 172.714 52.9971 172.861 52.9971C173.007 53.0337 173.117 53.0521 173.191 53.0521L174.566 53.3271C174.602 53.3637 174.676 53.3821 174.786 53.3821C175.776 53.3821 176.307 52.4837 176.381 50.6871L176.491 47.5521V39.137C176.491 36.0204 176.399 34.077 176.216 33.307C176.069 32.537 175.629 32.152 174.896 32.152C174.749 32.152 174.236 32.2437 173.356 32.427C172.989 32.5004 172.696 32.537 172.476 32.537C171.119 32.537 170.441 31.9504 170.441 30.777C170.441 29.5304 171.192 28.9071 172.696 28.9071C173.099 28.9071 173.649 28.9437 174.346 29.0171C175.042 29.0904 175.647 29.127 176.161 29.127C176.344 29.127 176.546 29.1087 176.766 29.072C176.986 29.072 177.114 29.072 177.151 29.072L178.471 28.9071H178.636C179.516 28.9071 179.956 29.4387 179.956 30.502ZM230.981 30.502V32.097C232.301 30.5204 233.548 29.4387 234.721 28.8521C235.894 28.2287 237.361 27.917 239.121 27.917C242.714 27.917 245.354 29.3104 247.041 32.097C248.288 30.5571 249.553 29.4754 250.836 28.8521C252.119 28.2287 253.769 27.917 255.786 27.917C257.876 27.917 259.746 28.357 261.396 29.237C263.229 30.227 264.494 31.6204 265.191 33.417C265.668 34.6271 265.906 36.5337 265.906 39.137V44.4721L265.851 48.5971C265.851 50.1004 265.869 51.0171 265.906 51.3471C266.089 52.6671 266.566 53.3271 267.336 53.3271C267.593 53.3271 267.978 53.2721 268.491 53.1621C269.004 53.0521 269.389 52.9971 269.646 52.9971C270.929 52.9971 271.571 53.5471 271.571 54.6471C271.571 55.9304 270.838 56.5721 269.371 56.5721C268.821 56.5721 267.978 56.4987 266.841 56.3521C265.741 56.2421 264.898 56.1871 264.311 56.1871C263.688 56.1871 262.771 56.2421 261.561 56.3521C260.388 56.4987 259.489 56.5721 258.866 56.5721C257.326 56.5721 256.556 55.9304 256.556 54.6471C256.556 53.5471 257.143 52.9971 258.316 52.9971C258.463 52.9971 258.829 53.0337 259.416 53.1071C259.636 53.1804 259.929 53.2171 260.296 53.2171C260.919 53.2171 261.304 52.9054 261.451 52.2821C261.634 51.6587 261.744 50.1004 261.781 47.6071L261.836 44.2521V40.6221C261.836 38.092 261.634 36.2587 261.231 35.1221C260.864 33.9487 260.149 33.032 259.086 32.372C258.023 31.712 256.813 31.382 255.456 31.382C252.853 31.382 251.038 32.2804 250.011 34.077C249.204 35.507 248.801 38.0004 248.801 41.557V45.4621C248.801 48.9087 248.874 51.0721 249.021 51.9521C249.204 52.7954 249.644 53.2171 250.341 53.2171C250.561 53.2171 250.873 53.1804 251.276 53.1071C251.716 52.9971 252.046 52.9421 252.266 52.9421C252.779 52.9421 253.201 53.1254 253.531 53.4921C253.898 53.8221 254.081 54.2437 254.081 54.7571C254.081 55.9671 253.219 56.5721 251.496 56.5721C250.946 56.5721 250.121 56.4987 249.021 56.3521C247.958 56.2054 247.151 56.1321 246.601 56.1321C245.831 56.1321 244.988 56.2054 244.071 56.3521C243.154 56.4987 242.348 56.5721 241.651 56.5721C240.148 56.5721 239.396 55.9487 239.396 54.7021C239.396 53.5654 239.946 52.9971 241.046 52.9971C241.449 52.9971 241.761 53.0337 241.981 53.1071C242.494 53.2171 242.879 53.2721 243.136 53.2721C244.016 53.2721 244.474 52.3371 244.511 50.4671L244.566 47.8821C244.603 47.0754 244.621 46.2871 244.621 45.5171C244.658 44.8571 244.676 44.5087 244.676 44.4721V39.907C244.676 36.7171 244.236 34.4987 243.356 33.252C242.513 32.0054 240.991 31.382 238.791 31.382C236.371 31.382 234.519 32.262 233.236 34.022C232.173 35.452 231.641 37.9454 231.641 41.5021V48.8171C231.641 50.2837 231.659 51.1454 231.696 51.4021C231.843 52.6487 232.246 53.2721 232.906 53.2721C233.089 53.2721 233.474 53.1987 234.061 53.0521C234.134 53.0521 234.244 53.0337 234.391 52.9971C234.538 52.9971 234.666 52.9971 234.776 52.9971C236.206 52.9971 236.921 53.6021 236.921 54.8121C236.921 55.9854 236.096 56.5721 234.446 56.5721C233.823 56.5721 233.053 56.5171 232.136 56.4071C230.889 56.2604 229.826 56.1871 228.946 56.1871C228.506 56.1871 227.699 56.2421 226.526 56.3521C224.949 56.4987 223.996 56.5721 223.666 56.5721C222.199 56.5721 221.466 55.9487 221.466 54.7021C221.466 53.5654 222.163 52.9971 223.556 52.9971C223.629 52.9971 223.739 52.9971 223.886 52.9971C224.033 53.0337 224.143 53.0521 224.216 53.0521L225.591 53.3271C225.628 53.3637 225.701 53.3821 225.811 53.3821C226.801 53.3821 227.333 52.4837 227.406 50.6871L227.516 47.5521V39.137C227.516 36.0204 227.424 34.077 227.241 33.307C227.094 32.537 226.654 32.152 225.921 32.152C225.774 32.152 225.261 32.2437 224.381 32.427C224.014 32.5004 223.721 32.537 223.501 32.537C222.144 32.537 221.466 31.9504 221.466 30.777C221.466 29.5304 222.218 28.9071 223.721 28.9071C224.124 28.9071 224.674 28.9437 225.371 29.0171C226.068 29.0904 226.673 29.127 227.186 29.127C227.369 29.127 227.571 29.1087 227.791 29.072C228.011 29.072 228.139 29.072 228.176 29.072L229.496 28.9071H229.661C230.541 28.9071 230.981 29.4387 230.981 30.502ZM282.666 40.402V47.5521C282.666 49.3854 282.685 50.4671 282.721 50.7971C282.905 52.4471 283.4 53.2721 284.206 53.2721C284.39 53.2721 284.848 53.1804 285.581 52.9971C285.765 52.9237 286.04 52.8871 286.406 52.8871C287.8 52.8871 288.496 53.4921 288.496 54.7021C288.496 55.2154 288.258 55.6554 287.781 56.0221C287.341 56.3887 286.773 56.5721 286.076 56.5721C285.49 56.5721 284.591 56.4987 283.381 56.3521C282.208 56.1687 281.328 56.0771 280.741 56.0771C279.788 56.0771 278.725 56.1504 277.551 56.2971C276.121 56.4804 275.168 56.5721 274.691 56.5721C273.225 56.5721 272.491 55.9487 272.491 54.7021C272.491 53.4921 273.115 52.8871 274.361 52.8871C274.655 52.8871 275.076 52.9421 275.626 53.0521C276.213 53.1621 276.653 53.2171 276.946 53.2171C277.826 53.2171 278.358 52.0437 278.541 49.6971C278.541 49.5504 278.541 47.9554 278.541 44.9121V40.402C278.541 37.3587 278.541 35.7637 278.541 35.6171C278.358 33.307 277.808 32.152 276.891 32.152C276.598 32.152 276.176 32.2254 275.626 32.372C275.113 32.482 274.728 32.537 274.471 32.537C273.151 32.537 272.491 31.9504 272.491 30.777C272.491 29.5304 273.298 28.9071 274.911 28.9071C275.608 28.9071 276.103 28.9254 276.396 28.962C277.57 29.1087 278.321 29.182 278.651 29.182C278.945 29.182 279.385 29.1454 279.971 29.072C280.595 28.962 281.053 28.9071 281.346 28.9071C282.41 28.9071 282.941 29.6221 282.941 31.0521C282.941 31.1987 282.923 31.4187 282.886 31.7121C282.85 32.0054 282.831 32.2254 282.831 32.372C282.795 32.6654 282.758 33.802 282.721 35.7821C282.685 37.2854 282.666 38.8254 282.666 40.402ZM279.806 25.992C278.963 25.992 278.23 25.6987 277.606 25.112C277.02 24.4887 276.726 23.7554 276.726 22.912C276.726 22.0687 277.02 21.3537 277.606 20.767C278.23 20.1804 278.963 19.887 279.806 19.887C280.65 19.887 281.365 20.1804 281.951 20.767C282.575 21.3537 282.886 22.0687 282.886 22.912C282.886 23.7554 282.575 24.4887 281.951 25.112C281.365 25.6987 280.65 25.992 279.806 25.992ZM296.338 25.662C296.338 25.0754 295.989 24.7637 295.293 24.727L294.193 24.672C293.459 24.6354 292.799 24.3054 292.213 23.682C291.663 23.022 291.388 22.252 291.388 21.372C291.388 20.3454 291.754 19.4837 292.488 18.787C293.221 18.0904 294.138 17.742 295.238 17.742C296.484 17.742 297.511 18.2554 298.318 19.282C299.161 20.272 299.583 21.5554 299.583 23.132C299.583 26.1754 298.446 29.182 296.173 32.152C295.293 33.2887 294.559 33.8571 293.973 33.8571C293.239 33.8571 292.873 33.4904 292.873 32.757C292.873 32.5004 293.093 32.097 293.533 31.547C294.229 30.6304 294.871 29.5671 295.458 28.3571C296.044 27.147 296.338 26.2487 296.338 25.662ZM316.46 27.917C318.917 27.917 320.97 28.5587 322.62 29.842V29.622C322.62 28.2654 323.207 27.5871 324.38 27.5871C325.59 27.5871 326.195 28.1737 326.195 29.347C326.195 29.567 326.158 30.117 326.085 30.997C325.938 31.7304 325.865 32.4637 325.865 33.197C325.865 33.637 325.92 34.2787 326.03 35.1221C326.177 35.9654 326.25 36.6071 326.25 37.0471C326.25 38.4404 325.645 39.137 324.435 39.137C323.262 39.137 322.657 38.5504 322.62 37.377L322.565 35.562C322.528 34.462 321.887 33.527 320.64 32.757C319.43 31.9504 318 31.547 316.35 31.547C314.663 31.547 313.252 31.987 312.115 32.867C310.978 33.7104 310.41 34.7737 310.41 36.057C310.41 38.4037 312.023 39.7971 315.25 40.2371L318.44 40.677C324.673 41.5204 327.79 44.1054 327.79 48.4321C327.79 51.0721 326.782 53.2171 324.765 54.8671C322.748 56.4804 320.108 57.2871 316.845 57.2871C313.802 57.2871 311.162 56.4254 308.925 54.7021C308.962 55.0687 308.98 55.4171 308.98 55.7471C308.98 57.0671 308.357 57.7271 307.11 57.7271C305.753 57.7271 305.075 56.9754 305.075 55.4721C305.075 55.7287 305.185 54.7754 305.405 52.6121C305.478 52.0987 305.515 51.5854 305.515 51.0721C305.515 50.1921 305.442 49.3671 305.295 48.5971C305.148 47.8271 305.075 47.2221 305.075 46.7821C305.075 45.4987 305.662 44.8571 306.835 44.8571C307.605 44.8571 308.082 45.0404 308.265 45.407C308.485 45.7737 308.613 46.7454 308.65 48.3221C308.687 49.8987 309.512 51.1821 311.125 52.1721C312.738 53.1621 314.792 53.6571 317.285 53.6571C319.082 53.6571 320.567 53.1987 321.74 52.2821C322.913 51.3654 323.5 50.2104 323.5 48.8171C323.5 46.3237 321.52 44.8754 317.56 44.4721C313.783 44.0687 310.905 43.3354 308.925 42.2721C306.945 41.1721 305.955 39.2654 305.955 36.552C305.955 33.9854 306.927 31.9137 308.87 30.337C310.813 28.7237 313.343 27.917 316.46 27.917Z" fill="white"/>
</svg>
