<svg width="30" height="30" viewBox="0 0 30 30" fill="none" xmlns="http://www.w3.org/2000/svg">
<path d="M29.9843 18.3329C29.9876 17.0571 29.9911 15.7375 29.9836 14.4397C29.977 13.2564 29.9352 12.0544 29.8949 10.8919L29.8689 10.1409C29.8595 9.85655 29.8519 9.57197 29.844 9.28762C29.8191 8.36957 29.7942 7.42024 29.7022 6.49089C29.6078 5.54886 29.4306 4.61711 29.1726 3.70662C28.4515 1.15599 26.0471 0 24.1053 0H24.0757C20.6461 0.0209562 17.1596 0.11736 13.7889 0.21047C12.6097 0.243014 11.4307 0.274502 10.2517 0.304952L9.58224 0.321374C8.25461 0.353247 6.88173 0.386237 5.53354 0.47094C3.09759 0.623908 1.47924 1.62394 0.586382 3.52807C0.326346 4.08264 0.173836 4.68207 0.137032 5.29424C-0.0898899 9.77686 0.0116651 14.3331 0.109985 18.7391C0.122695 19.3081 0.135163 19.8764 0.147375 20.4442L0.155969 20.8496C0.181764 22.0605 0.208558 23.3126 0.216284 24.5436C0.23211 27.0784 2.41259 29.4603 4.88243 29.6399C5.42641 29.6692 5.97157 29.6686 6.51549 29.6381C6.87849 29.6244 7.25433 29.6094 7.62044 29.615C9.254 29.6376 10.9149 29.6698 12.5211 29.7008C13.4362 29.7184 14.3512 29.7356 15.2662 29.7523C15.9226 29.7638 16.5792 29.7743 17.2361 29.7838C18.3866 29.8012 19.576 29.8192 20.7455 29.8465C20.9514 29.8582 21.1558 29.8891 21.3561 29.9388C21.4558 29.9598 21.5544 29.9811 21.6537 29.9982C21.6608 29.9995 21.668 30 21.6752 30H22.9503C22.9565 30 22.9627 29.9996 22.969 29.9987C23.2307 29.9597 23.4933 29.9252 23.7559 29.8908C24.3258 29.8155 24.9148 29.7389 25.4864 29.6135C28.0107 29.0597 30.0348 26.4262 29.9995 23.7428C29.9754 21.9402 29.98 20.1066 29.9843 18.3329ZM28.3145 21.164C28.317 22.0758 28.3191 22.9877 28.321 23.8996C28.3239 25.5882 26.9484 27.4582 25.3774 27.9012C24.4318 28.1816 23.4538 28.3358 22.4685 28.3599C21.0894 28.3724 19.7177 28.311 18.2654 28.2471C17.6938 28.222 17.1126 28.1959 16.5184 28.1742L16.6583 17.0908C16.905 17.0839 17.1462 17.0782 17.3829 17.0717C18.0631 17.0541 18.7055 17.0375 19.3496 17.0122C19.6949 17.0017 20.0388 16.9651 20.3788 16.903C20.8579 16.8117 21.1238 16.4992 21.0901 16.0675C21.0552 15.6212 20.7394 15.3441 20.2659 15.3441H20.2646C19.8774 15.3441 19.4854 15.3654 19.1057 15.3858C18.9602 15.3936 18.8145 15.4015 18.6688 15.4081C18.2101 15.4293 17.7514 15.4512 17.2743 15.4741L16.726 15.5005C16.7241 15.2663 16.7215 15.0325 16.7181 14.7994C16.6913 12.7444 16.666 10.8035 17.4159 8.91992C18.039 7.35499 19.6753 6.59344 21.2224 7.14897C21.5387 7.27768 21.8391 7.44264 22.1179 7.64062C22.3166 7.76987 22.5222 7.90414 22.7367 8.01419C22.8821 8.08948 23.254 8.25535 23.5656 8.1773C23.921 8.08946 24.0755 7.74452 23.969 7.27696C23.8936 6.95554 23.7498 6.65444 23.5476 6.39446C23.3453 6.13446 23.0895 5.9218 22.7976 5.77113C22.1687 5.41819 21.4731 5.20257 20.756 5.1383C20.0389 5.07405 19.3164 5.16259 18.6355 5.39816C17.3584 5.85091 16.3551 6.8328 15.8092 8.16295C15.3274 9.34827 15.0661 10.6126 15.0381 11.893C15.0158 12.7496 15.0209 13.596 15.0264 14.4921C15.0285 14.8511 15.0306 15.2151 15.031 15.5859L14.6342 15.6194C14.2404 15.6529 13.8683 15.6846 13.5018 15.7099C13.3648 15.7194 13.2237 15.7197 13.0869 15.7199C12.9932 15.7199 12.8993 15.7199 12.8059 15.7231C12.1409 15.7434 11.9869 16.1121 11.9748 16.4185C11.9571 16.8641 12.2547 17.1433 12.7706 17.1652C13.1882 17.1829 13.6112 17.1719 14.0205 17.1615C14.2004 17.1569 14.3802 17.1521 14.5601 17.1499C14.6564 17.1485 14.7528 17.1491 14.8665 17.1494H14.933L15.0401 28.0432H14.8371C14.5505 28.0432 14.2367 28.0432 13.9228 28.0432C13.1392 28.0441 12.3554 28.0428 11.5713 28.0394C9.81302 28.0343 7.9949 28.0291 6.20695 28.0601C4.86586 28.0786 3.74072 27.6923 2.96588 26.9285C2.15115 26.1254 1.7175 24.9193 1.71189 23.4417L1.70516 21.6581C1.68722 16.9624 1.66852 12.1067 1.67488 7.33125C1.66029 6.21644 1.92498 5.1159 2.44449 4.13135C2.91578 3.25935 3.61175 2.71601 4.45713 2.55991C5.79435 2.31295 7.10255 2.08832 8.40588 2.05293C12.5119 1.94112 17.9173 1.81175 23.3149 1.80196H23.3296C25.8512 1.80196 27.3405 2.99732 27.7564 5.35521C28.0466 7.00008 28.3545 8.91829 28.3335 10.8676C28.2957 14.3003 28.3052 17.7898 28.3143 21.1644L28.3145 21.164Z" fill="white"/>
</svg>
