<svg width="30" height="30" viewBox="0 0 30 30" fill="none" xmlns="http://www.w3.org/2000/svg">
<path d="M29.4475 4.93388C29.0077 1.30277 25.9684 -0.154792 23.1524 0.0129027C21.4813 0.111481 19.8262 0.163965 17.8554 0.212571C16.0698 0.256576 14.2386 0.294369 12.6232 0.327685C10.305 0.375668 7.90795 0.425376 5.5277 0.491509C2.79505 0.567587 0.59163 2.33725 0.167883 4.79512C-0.00225807 5.78165 -0.00721073 6.77711 0.00329946 7.88261C0.0340886 11.1109 0.0810754 14.3731 0.126949 17.5278L0.131899 17.8694C0.150035 19.1385 0.167826 20.4077 0.185302 21.6769C0.188269 21.8907 0.195688 22.105 0.203355 22.3194L0.203988 22.3365C0.235079 22.8676 0.229838 23.4001 0.18829 23.9304C0.0412714 25.3467 0.580505 26.8567 1.63091 27.9695C2.79853 29.2065 4.4533 29.8354 6.29172 29.7412C8.29781 29.6368 10.3441 29.6567 12.3229 29.6758L12.4662 29.6773C14.8146 29.6998 17.2028 29.7598 19.5154 29.8183L20.6814 29.8476C20.8777 29.8594 21.0726 29.889 21.2635 29.9364C21.3637 29.9577 21.4638 29.9789 21.5636 29.9961C21.578 29.9986 21.5926 30 21.607 30H22.8723C22.8848 29.9999 22.8972 29.999 22.9094 29.9973C23.1623 29.96 23.4164 29.9262 23.6696 29.8928L23.6887 29.8904C24.2565 29.8158 24.8435 29.739 25.4158 29.614C27.8843 29.0749 29.9757 26.5009 29.9827 23.9934C29.9844 23.4027 29.9865 22.8118 29.9888 22.2208L29.99 21.924C30.0023 18.685 30.0159 15.3357 29.9467 12.0377C29.8961 9.6394 29.7282 7.24878 29.4475 4.93388ZM28.075 23.8188C28.0825 25.7554 26.4023 27.5686 24.2497 27.9466C22.6003 28.2363 20.9143 28.1378 19.2837 28.043C18.6784 28.0077 18.0525 27.9711 17.4305 27.9546C16.7245 27.936 16.0053 27.8993 15.306 27.8636L15.2442 27.8604C14.9432 27.8451 14.642 27.8298 14.3432 27.8161H14.3294C13.5685 27.8161 12.8075 27.8152 12.0465 27.8133C11.1633 27.8118 10.2659 27.8103 9.3649 27.8103C8.17972 27.8103 7.20538 27.8128 6.29779 27.8182H6.25785C4.92665 27.8182 3.82853 27.4213 3.08218 26.67C2.30616 25.8888 1.90121 24.722 1.91147 23.2954C1.93546 19.9412 1.92098 16.5453 1.90688 13.261C1.89897 11.3859 1.89082 9.44709 1.88983 7.53134C1.87125 6.42802 2.11946 5.33667 2.61315 4.35111C3.17304 3.26861 4.17314 2.69417 5.7603 2.54339C7.98747 2.33206 9.78459 2.21693 11.4159 2.18126C16.1254 2.07758 19.7498 2.04091 23.1674 2.06217C25.6602 2.07771 27.1 3.25667 27.5693 5.66717C28.0886 8.3386 28.0812 11.0844 28.0734 13.7412L28.0726 13.9664C28.0621 17.7343 28.0628 20.8647 28.0747 23.8188H28.075Z" fill="white"/>
<path d="M16.5935 8.412C14.9348 8.38086 13.4587 8.71977 12.2042 9.41498C10.6933 10.2517 9.08393 11.3813 8.6023 13.4127C7.98298 16.0242 8.26469 18.5369 9.43953 20.881C10.2807 22.5596 11.5993 23.5926 13.2527 23.8679C14.2421 24.0415 15.2439 24.1327 16.2483 24.1406C16.5633 24.1406 16.8758 24.1295 17.1759 24.1078C19.4021 23.9464 21.1704 23.0491 22.4317 21.4407C24.3849 18.95 24.7245 16.0984 23.4415 12.9651C22.2008 9.93493 19.8277 8.35987 16.5935 8.412ZM22.0227 16.4188C22.0323 19.8236 19.7615 22.0975 16.2372 22.2104C15.3407 22.2258 14.445 22.1471 13.5646 21.9759C12.4378 21.7726 11.5825 21.0908 11.0218 19.9497C10.0868 18.0455 9.85998 16.0773 10.3474 14.0997C10.7229 12.576 11.8296 11.4585 13.7305 10.6832C14.4369 10.3976 15.1918 10.2526 15.9532 10.2562C16.6127 10.2593 17.2685 10.3564 17.9009 10.5445C20.3967 11.2747 22.0146 13.5804 22.0227 16.4188Z" fill="white"/>
<path d="M25.137 5.09656H25.0994C24.7304 5.10585 24.379 5.2571 24.1176 5.51914C23.8564 5.78118 23.7049 6.13406 23.6948 6.50497C23.6856 6.68576 23.713 6.86651 23.7754 7.03634C23.8377 7.20618 23.9336 7.36156 24.0572 7.49314C24.1863 7.62522 24.3408 7.72961 24.5111 7.79992C24.6817 7.87025 24.8644 7.90505 25.0487 7.90225C25.412 7.89046 25.757 7.73865 26.0121 7.47825C26.2672 7.21786 26.4129 6.86881 26.4192 6.50336C26.4311 5.7741 25.8318 5.11688 25.137 5.09656Z" fill="white"/>
</svg>
