<svg width="62" height="46" viewBox="0 0 62 46" fill="none" xmlns="http://www.w3.org/2000/svg">
<path d="M59.9545 16.9521L59.7599 16.8676C59.1915 16.6078 58.6023 16.3881 57.9978 16.2105C56.4878 15.8123 54.9426 15.434 53.4484 15.0683C52.8826 14.9315 52.3169 14.7929 51.7514 14.6526C51.409 14.5681 51.0666 14.4857 50.6852 14.3912L49.884 14.1975L49.8867 12.3585C49.8867 11.7089 49.8922 11.0568 49.8948 10.4072C49.9056 8.9685 49.9164 7.48278 49.8867 6.02324C49.8379 3.74116 48.3901 1.94671 46.0086 1.22759L45.8769 1.18537C45.5153 1.06144 45.1408 0.972256 44.7591 0.919038L43.5494 0.792022C41.4897 0.574036 39.3616 0.349129 37.2624 0.202352C36.2089 0.127752 35.1243 0.129669 34.0742 0.132575C33.5653 0.134998 33.0593 0.1376 32.5505 0.130092C31.4543 0.117497 30.3584 0.0952584 29.2595 0.0727331C27.4 0.0380975 25.4931 0 23.5923 0C23.0239 0 22.4563 0.00331412 21.8897 0.00993436C20.0171 0.037546 18.1089 0.144433 16.266 0.249066C15.1102 0.313735 13.914 0.383491 12.7367 0.430721C10.0127 0.548633 7.3075 0.907039 4.65818 1.50102C3.31511 1.82418 2.12767 2.5502 1.28396 3.56403C0.440249 4.57789 -0.0115146 5.82155 0.000223079 7.09815C0.062645 10.0325 0.062661 13.0167 0.062661 15.9036C0.062661 17.071 0.0643578 18.2383 0.0678694 19.4054C0.0705033 20.0848 0.0597596 20.7644 0.0518581 21.4438C0.0328945 22.8525 0.0138845 24.3084 0.103172 25.7309C0.311507 29.0659 1.1017 30.6761 5.23446 31.393C5.55052 31.4477 5.87867 31.4875 6.19789 31.5248C6.40649 31.549 6.61749 31.5747 6.82583 31.6044C7.28885 31.6691 7.74767 31.7389 8.24415 31.8111L9.1209 31.9431L9.13723 32.1395C9.14803 32.2591 9.16148 32.3635 9.17228 32.4556C9.20199 32.6191 9.20934 32.7857 9.19414 32.9509C8.96395 34.5662 9.71088 35.6987 11.4808 36.4144C12.0302 36.6358 12.5744 36.8674 13.1209 37.0989C14.6308 37.7824 16.194 38.3615 17.7976 38.8312C22.9209 40.19 28.1796 41.417 33.2651 42.604L34.0931 42.7978C38.6075 43.8504 43.1245 44.8236 46.9433 45.635C49.0649 46.088 50.5454 45.8913 51.7472 45.0029C52.6401 44.3542 53.4186 43.5828 54.0558 42.7157C54.7053 41.7469 55.2302 40.7122 55.62 39.6319C56.5753 37.1779 57.5145 34.6718 58.424 32.2475C58.9507 30.8391 59.4812 29.4306 60.0153 28.0217C61.0762 25.2191 61.6986 22.8673 61.9665 20.6174C62.1703 18.9207 61.4376 17.584 59.9545 16.9521ZM4.20774 5.28479C4.68183 4.83162 5.46621 4.62769 5.89105 4.548C8.28505 4.13126 10.7047 3.8503 13.1362 3.70679C20.4543 3.17393 27.6805 3.21395 35.689 3.31107C38.6605 3.34837 41.5672 3.42803 44.4596 4.00788C46.1213 4.3414 46.7627 5.02343 46.8222 6.52681C46.8467 7.08388 46.8412 7.65184 46.8359 8.24912C46.833 8.53783 46.8304 8.83889 46.8304 9.1574V9.4113L46.557 9.40646C44.3027 9.38144 42.0629 9.35153 39.837 9.31682C34.6813 9.23955 29.8153 9.17486 24.8325 9.17147C19.8446 9.17631 14.7565 9.25866 9.83891 9.33811C7.63333 9.37572 5.42133 9.40978 3.20293 9.44029L2.99986 9.44276L2.94034 9.26348C2.47283 7.85311 2.88687 6.54887 4.20774 5.28479ZM2.90323 12.0567H3.17401C4.9169 12.0468 6.64989 12.0343 8.37294 12.0193C12.2378 11.9895 16.2323 11.9598 20.1462 11.9746C23.5264 11.992 26.961 12.0641 30.2817 12.1339C31.6776 12.1612 33.072 12.191 34.4658 12.216L40.0519 12.3206C41.7025 12.3529 43.3516 12.3844 44.9993 12.4151C45.2943 12.4202 45.5864 12.4201 45.9167 12.4175L46.7068 12.4151V14.3889H46.4363C43.2886 14.3937 40.1417 14.392 36.9964 14.3838C25.9298 14.3663 14.4898 14.3464 3.18771 14.8292L2.90349 14.8418L2.90323 12.0567ZM10.6841 29.1649C9.95348 29.125 9.21996 29.0828 8.4867 29.0438C7.54615 28.9767 6.61075 28.8588 5.68535 28.6905L4.99262 28.5786C3.99651 28.4243 3.40392 27.8418 3.32543 26.9434C3.3012 26.6646 3.27115 26.3863 3.24428 26.1071C3.1766 25.4475 3.1063 24.7657 3.0926 24.0887C3.06837 22.6873 3.07364 21.306 3.07917 19.8452C3.0818 19.243 3.08267 18.6316 3.0818 18.0111V17.7819L3.32807 17.762C3.49584 17.7472 3.65543 17.7323 3.80714 17.7137C4.113 17.677 4.42066 17.6546 4.72898 17.6463C5.49753 17.6388 6.26637 17.6415 7.03203 17.6415C7.8875 17.6415 8.73981 17.6415 9.59238 17.6316C11.0349 17.6141 12.4748 17.5891 13.9174 17.5642C16.5696 17.5157 19.3168 17.4674 22.0175 17.4746C27.3763 17.4896 32.8244 17.5443 38.0937 17.5942C40.3888 17.6165 42.6829 17.6381 44.9761 17.6589C45.274 17.6613 45.5716 17.6614 45.8964 17.6614L46.6136 17.6589C46.6136 17.6589 46.7029 18.7961 46.7055 18.9281C46.7582 21.4243 46.9059 23.9507 46.316 26.7654C45.9317 28.5972 45.4824 28.9978 43.4822 29.2742C43.3358 29.2911 43.1886 29.3003 43.0411 29.3015C40.8084 29.3238 38.5746 29.3497 36.3401 29.3786C31.133 29.4435 25.7552 29.5106 20.448 29.5106H19.6792C16.679 29.506 13.6314 29.3342 10.6841 29.1649ZM54.3768 31.3002C54.3631 31.3949 54.3579 31.4846 54.3505 31.5691C54.3457 31.7568 54.3157 31.9433 54.2612 32.1242C53.3789 34.6776 52.5102 37.1788 51.606 39.6901C51.4061 40.2147 51.1488 40.7194 50.8375 41.1959C50.2799 42.0843 49.8335 42.4427 49.0486 42.4427C48.6891 42.4318 48.3324 42.3829 47.985 42.2974C46.5533 41.9765 45.1215 41.6478 43.6898 41.3218C42.8074 41.1179 41.924 40.9159 41.0401 40.7163C39.1806 40.2931 37.3225 39.8734 35.4651 39.4568C31.1917 38.4935 26.7734 37.4981 22.4363 36.4801C19.5377 35.8007 16.5526 35.0995 13.83 33.7916C13.0314 33.4082 12.9774 33.3161 12.9935 32.3802L12.999 32.1562L13.2426 32.1363C14.8165 32.0237 16.3984 32.0455 17.968 32.201C18.0997 32.2109 18.2314 32.231 18.3604 32.2509C18.5329 32.2807 18.7074 32.2991 18.8827 32.3056C20.2359 32.333 21.5901 32.3628 22.9451 32.3953C26.3038 32.4749 29.7763 32.5544 33.1863 32.5321C36.7451 32.5079 40.4096 32.3306 44.074 32.0118C46.1851 31.8278 47.7169 30.9866 48.6237 29.5157L48.732 29.3388L54.4005 31.0992L54.3768 31.3002ZM56.7259 25.566L55.6379 28.5626L49.819 27.0916L49.4766 26.9647C49.6886 26.1594 49.6404 25.4914 49.7784 24.7497C49.8624 24.3043 49.9409 22.9952 49.9409 22.9952L56.7855 25.3296L56.7259 25.566ZM57.7597 22.4173L57.4811 22.3625C55.0774 21.8924 52.7091 21.2814 50.3903 20.5332L50.2114 20.476V17.0464L58.2657 19.5277L57.7597 22.4173Z" fill="white" fill-opacity="0.8"/>
</svg>
