<svg width="70" height="70" viewBox="0 0 70 70" fill="none" xmlns="http://www.w3.org/2000/svg">
<path d="M11.1395 28.7958C11.2377 28.8244 11.3402 28.8353 11.4421 28.8277C11.5038 28.8319 11.5664 28.8363 11.6291 28.8363C11.726 28.8384 11.8224 28.8231 11.9138 28.7908C12.1842 28.685 12.4389 28.5428 12.6709 28.3681C17.2839 24.9743 22.7006 22.9008 28.77 22.2061C30.8754 21.9352 32.9936 21.7767 35.1159 21.731C43.1167 21.6753 49.7536 22.2353 56.0975 25.1816C56.3561 25.309 56.6297 25.404 56.9115 25.4647C57.4554 25.5831 58.024 25.498 58.5094 25.2255C58.9948 24.9531 59.3638 24.5121 59.546 23.9861C59.8983 22.9516 59.5283 22.0426 58.506 21.4264C58.1615 21.2385 57.7937 21.097 57.4122 21.0056C57.2614 20.9624 57.1106 20.9195 56.964 20.8699C47.5044 17.6706 37.5684 17.0102 26.5884 18.8515C21.7041 19.6278 17.0662 21.5251 13.0382 24.3945C12.115 25.1112 11.2969 25.954 10.6081 26.8983C10.488 27.0405 10.4024 27.2085 10.3581 27.3892C10.3139 27.5699 10.312 27.7584 10.3528 27.9399C10.4094 28.1333 10.5098 28.3111 10.6462 28.4596C10.7827 28.608 10.9515 28.723 11.1395 28.7958Z" fill="white"/>
<path d="M53.8272 35.218C53.652 35.1545 53.4799 35.0934 53.3031 35.0435C44.3808 32.5424 35.5626 31.974 27.092 33.3535C23.9769 33.8611 20.9137 34.7359 18.2872 35.5157C17.0941 35.87 16.0151 36.5944 14.9715 37.2948L14.7409 37.4508C14.5063 37.6448 14.317 37.8876 14.1859 38.1621C14.055 38.437 13.9855 38.737 13.9825 39.0412C13.9906 39.4244 14.237 39.7619 14.4765 40.0879C14.5695 40.2156 14.6657 40.3479 14.7411 40.4738C14.7649 40.5135 14.7985 40.5463 14.8388 40.5692C14.879 40.5921 14.9245 40.604 14.9707 40.6037C15.0064 40.604 15.0417 40.597 15.0747 40.5832C15.7081 40.3178 16.2918 40.0552 16.856 39.8009C17.8936 39.3022 18.9644 38.8756 20.0606 38.5238C27.286 36.3859 34.8809 35.7949 42.3503 36.7889C44.6385 37.1357 46.9072 37.6013 49.147 38.1845C50.317 38.4674 51.5247 38.7599 52.7209 39.0131C54.2809 39.3428 55.4033 38.8875 55.721 37.794C55.9472 37.0135 55.8032 35.9335 53.8272 35.218Z" fill="white"/>
<path d="M48.8064 48.4747C48.1995 48.0665 47.5477 47.7298 46.8637 47.4716C39.7227 44.8834 33.2442 44.4507 27.0568 46.1503C24.9284 46.7345 22.8817 47.6635 21.0768 48.483C20.4055 48.7874 19.8809 49.433 19.4196 50.0021L19.2847 50.1685C19.1643 50.3692 19.1041 50.6001 19.1113 50.8339C19.1184 51.0678 19.1927 51.2946 19.3253 51.4875C19.6477 51.8257 20.085 52.0309 20.5511 52.0628C20.5853 52.0628 20.6194 52.061 20.6533 52.0576C21.0119 51.9984 21.3568 51.8751 21.6717 51.6937C21.8389 51.606 22.011 51.5278 22.187 51.4597C22.6314 51.2992 23.0741 51.1315 23.5172 50.9641C24.638 50.5187 25.7805 50.1298 26.9406 49.7993C32.4161 48.3434 38.0353 48.6312 44.121 50.6776C44.8558 50.9249 45.5915 51.1362 46.4433 51.3814C46.8632 51.502 47.308 51.63 47.7893 51.773C47.8267 51.7841 47.8662 51.787 47.9047 51.781C47.9435 51.7753 47.9804 51.761 48.0131 51.7394C48.113 51.6731 48.2471 51.6027 48.3867 51.528C48.8324 51.3354 49.2229 51.0351 49.5237 50.6539C49.9979 49.9291 49.7166 49.0732 48.8064 48.4747Z" fill="white"/>
<path d="M69.7844 31.693C68.9816 24.6487 66.1539 17.9882 61.6438 12.5177C57.9258 7.9564 53.9279 4.70515 49.4191 2.58282C45.9008 0.887568 42.0467 0.00486085 38.1413 0C36.9417 0.00179656 35.7431 0.0799919 34.5534 0.234033C29.6021 0.875959 24.5831 2.31266 18.7642 4.7579C10.8929 8.06763 5.41403 13.755 2.47947 21.6575C0.421866 27.0849 -0.371195 32.91 0.160575 38.6897C0.779101 45.1831 2.34166 50.2165 5.07681 54.5233C9.02872 60.7411 14.0063 64.8365 20.2974 67.0382C24.1112 68.3748 28.3091 69.0461 33.5051 69.1517C36.5626 69.1517 39.409 68.7822 42.1629 68.4237L42.6847 68.3563C48.6945 67.5792 53.7982 65.4101 58.2893 61.7309C62.6281 58.1721 65.7355 53.7951 67.5238 48.7237C69.6732 42.6239 70.4118 37.051 69.7844 31.693ZM62.6902 51.0626C59.2895 57.9488 53.5702 62.4662 45.6843 64.4889C44.7374 64.7323 43.7582 64.908 42.7235 65.0929C42.2105 65.1836 41.6739 65.2803 41.1115 65.3888C38.6579 65.7582 35.3482 65.8141 33.5249 65.8141C32.7126 65.8141 32.1937 65.8022 32.1791 65.8022C27.389 65.7437 23.2673 64.9314 19.5824 63.3164C14.6719 61.1646 10.7468 57.5325 7.58654 52.2146C5.67792 49.0076 4.46661 45.2111 3.7784 40.2684C2.89416 33.9817 3.66725 27.5731 6.02111 21.6768C8.49808 15.3943 12.9541 10.627 19.2629 7.51145C20.7188 6.79022 26.6415 5.05484 28.1981 4.73817C30.3896 4.30096 32.6112 4.0334 34.8438 3.93788C43.6766 3.72676 47.1652 5.14873 52.5593 9.26781C58.2085 13.5801 62.1895 19.0004 64.394 25.3765C67.3894 34.0608 66.8179 42.703 62.6902 51.061V51.0626Z" fill="white"/>
</svg>
